<?xml version="1.0" encoding="utf-8"?>
<!-- Generator: Adobe Illustrator 27.5.0, SVG Export Plug-In . SVG Version: 6.00 Build 0)  -->
<svg version="1.1" id="Слой_1" xmlns="http://www.w3.org/2000/svg" xmlns:xlink="http://www.w3.org/1999/xlink" x="0px" y="0px"
	 viewBox="0 0 2600 2000" style="enable-background:new 0 0 2600 2000;" xml:space="preserve">
<rect style="fill:#FFFFFF;" width="2600" height="2000"/>
<path style="fill:#E3EAFF;" d="M211.255,1792.781c-188.35-277.482-148.064-696.473,75.458-845.488
	c305.427-203.618-78.98-524.035,448.51-742.93c219.56-91.112,475.604,100.296,698.243,108.602
	c199.5,7.443,405.876-161.151,608.432-83.05c135.456,44.959,293.845,200.558,283.745,351.417
	c-5.218,77.955-121.07,266.905,46.777,431.999c229.066,225.312,110.064,547.566,2.752,775.949
	C2375.18,1789.262,211.255,1792.781,211.255,1792.781z"/>
<g>
	<path style="fill:#FFFFFF;" d="M479.141,856.354c-0.472,0-0.952-0.087-1.418-0.27c-1.994-0.784-2.976-3.036-2.192-5.03
		c1.982-5.044,4.531-10.245,7.577-15.464c1.08-1.852,3.456-2.476,5.306-1.396c1.851,1.08,2.476,3.456,1.396,5.307
		c-2.846,4.876-5.22,9.717-7.057,14.392C482.152,855.42,480.689,856.354,479.141,856.354z M495.734,827.627
		c-0.824,0-1.654-0.261-2.358-0.801c-1.701-1.303-2.022-3.739-0.719-5.44c3.496-4.561,7.273-8.904,11.227-12.907
		c1.506-1.525,3.962-1.541,5.487-0.035c1.525,1.506,1.54,3.962,0.035,5.487c-3.728,3.774-7.29,7.871-10.59,12.176
		C498.053,827.104,496.9,827.627,495.734,827.627z M684.402,811.211c-2.127,0-4.325-0.046-6.531-0.135
		c-2.142-0.086-3.807-1.892-3.72-4.033c0.086-2.142,1.892-3.807,4.033-3.72c5.665,0.229,11.117,0.148,16.165-0.24
		c2.137-0.165,4.002,1.435,4.166,3.571c0.165,2.137-1.434,4.002-3.57,4.166C691.573,811.079,688.025,811.211,684.402,811.211z
		 M661.466,809.656c-0.164,0-0.33-0.01-0.497-0.031c-5.378-0.688-10.99-1.608-16.678-2.735c-2.102-0.417-3.468-2.457-3.052-4.56
		c0.417-2.102,2.458-3.469,4.56-3.051c5.516,1.093,10.95,1.984,16.153,2.649c2.126,0.272,3.629,2.215,3.357,4.341
		C665.06,808.227,663.39,809.656,661.466,809.656z M711.053,808.259c-1.738,0-3.32-1.176-3.761-2.938
		c-0.52-2.079,0.743-4.186,2.822-4.707c5.414-1.355,10.325-3.216,14.598-5.53c1.884-1.021,4.239-0.32,5.26,1.564
		c1.02,1.884,0.32,4.239-1.564,5.26c-4.844,2.624-10.365,4.721-16.409,6.234C711.682,808.222,711.365,808.259,711.053,808.259z
		 M519.109,804.083c-1.169,0-2.325-0.526-3.088-1.528c-1.299-1.704-0.971-4.138,0.733-5.438c4.723-3.6,9.615-6.734,14.54-9.313
		c1.898-0.995,4.243-0.262,5.238,1.636c0.994,1.898,0.262,4.243-1.637,5.238c-4.54,2.378-9.06,5.275-13.437,8.611
		C520.756,803.824,519.929,804.083,519.109,804.083z M628.835,803.253c-0.322,0-0.648-0.04-0.974-0.125
		c-5.346-1.382-10.788-2.942-16.176-4.637c-2.044-0.644-3.18-2.822-2.537-4.866c0.643-2.043,2.821-3.18,4.865-2.536
		c5.262,1.654,10.575,3.177,15.792,4.526c2.075,0.537,3.321,2.653,2.785,4.728C632.137,802.094,630.562,803.253,628.835,803.253z
		 M597.113,793.287c-0.448,0-0.904-0.079-1.348-0.244c-1.978-0.732-3.918-1.474-5.818-2.221c-3.115-1.224-6.292-2.21-9.444-2.931
		c-2.09-0.479-3.395-2.559-2.917-4.648c0.478-2.089,2.559-3.395,4.648-2.917c3.528,0.808,7.078,1.908,10.551,3.273
		c1.854,0.729,3.748,1.452,5.678,2.168c2.009,0.745,3.034,2.977,2.29,4.986C600.171,792.318,598.689,793.287,597.113,793.287z
		 M739.593,792.206c-0.921,0-1.845-0.326-2.585-0.988c-1.598-1.429-1.734-3.882-0.306-5.479c2.959-3.308,5.39-7.138,7.224-11.383
		c0.85-1.967,3.134-2.873,5.101-2.022c1.967,0.85,2.873,3.133,2.023,5.101c-2.167,5.013-5.047,9.547-8.564,13.479
		C741.72,791.769,740.658,792.206,739.593,792.206z M548.489,788.933c-1.693,0-3.25-1.118-3.732-2.828
		c-0.581-2.063,0.619-4.206,2.681-4.788c5.74-1.619,11.564-2.53,17.309-2.706c2.141-0.066,3.932,1.617,3.997,3.758
		c0.066,2.143-1.617,3.932-3.759,3.997c-5.114,0.157-10.309,0.97-15.44,2.418C549.193,788.885,548.838,788.933,548.489,788.933z"/>
</g>
<g>
	<polygon style="fill:#BDCDFF;" points="472.642,841.915 482.35,857.684 399.491,914.659 	"/>
	<polygon style="fill:#BDCDFF;" points="490.983,876.621 486.022,894.762 403.176,912.034 	"/>
	<polygon style="fill:#FFFFFF;" points="399.491,914.659 539.398,866.4 490.886,849.539 	"/>
	<polygon style="fill:#FFFFFF;" points="472.642,841.915 399.491,914.659 442.149,829.171 	"/>
</g>
<g>
	<path style="fill:#FFFFFF;" d="M980.111,621.264c-0.853,0-1.714-0.262-2.456-0.804c-1.854-1.358-2.257-3.963-0.898-5.817
		c2.919-3.986,5.9-7.913,8.858-11.669c1.422-1.806,4.04-2.117,5.845-0.694c1.806,1.422,2.117,4.039,0.695,5.846
		c-2.899,3.681-5.82,7.528-8.682,11.437C982.657,620.674,981.393,621.264,980.111,621.264z M1000.241,595.968
		c-0.967,0-1.94-0.335-2.728-1.019c-1.735-1.508-1.92-4.138-0.413-5.873c4.007-4.614,8.111-9.092,12.198-13.312
		c1.599-1.651,4.234-1.693,5.886-0.094c1.651,1.599,1.693,4.235,0.094,5.886c-3.982,4.112-7.983,8.479-11.893,12.979
		C1002.563,595.482,1001.405,595.968,1000.241,595.968z M1025.071,570.393c-1.128,0-2.253-0.456-3.074-1.355
		c-1.55-1.696-1.432-4.33,0.266-5.881c4.515-4.125,9.148-8.083,13.772-11.762c1.799-1.432,4.417-1.134,5.849,0.665
		c1.432,1.798,1.134,4.418-0.665,5.849c-4.476,3.562-8.964,7.395-13.34,11.395C1027.079,570.033,1026.074,570.393,1025.071,570.393z
		 M1477.438,555.31c-1.361,0-2.723-0.02-4.086-0.059c-1.163-0.034-2.325-0.072-3.486-0.114c-2.297-0.084-4.092-2.014-4.008-4.312
		c0.084-2.297,2.018-4.093,4.312-4.008c1.14,0.041,2.281,0.079,3.424,0.112c1.282,0.038,2.563,0.056,3.845,0.056
		c0.001,0,0.004,0,0.006,0c3.326,0,6.725-0.128,10.102-0.377c2.292-0.171,4.289,1.551,4.459,3.843
		c0.17,2.293-1.551,4.29-3.844,4.459C1484.576,555.175,1480.969,555.31,1477.438,555.31z M1452.203,554.158
		c-0.101,0-0.203-0.004-0.307-0.012c-5.834-0.426-11.859-0.968-17.908-1.609c-2.286-0.243-3.943-2.292-3.701-4.578
		c0.243-2.287,2.293-3.942,4.579-3.7c5.96,0.632,11.894,1.166,17.637,1.586c2.293,0.167,4.016,2.161,3.848,4.454
		C1456.191,552.488,1454.365,554.158,1452.203,554.158z M1505.503,552.559c-1.956,0-3.7-1.385-4.083-3.378
		c-0.434-2.257,1.045-4.439,3.303-4.872c5.515-1.059,11.199-2.456,16.896-4.154c2.203-0.657,4.521,0.598,5.178,2.801
		c0.656,2.203-0.598,4.521-2.801,5.178c-5.961,1.776-11.918,3.24-17.703,4.351C1506.027,552.535,1505.764,552.559,1505.503,552.559z
		 M1416.717,550.418c-0.186,0-0.373-0.012-0.563-0.038c-5.727-0.775-11.699-1.658-17.752-2.627
		c-2.271-0.363-3.816-2.498-3.453-4.768c0.363-2.27,2.5-3.816,4.769-3.452c5.985,0.958,11.892,1.832,17.552,2.597
		c2.278,0.308,3.875,2.405,3.567,4.683C1420.555,548.902,1418.768,550.418,1416.717,550.418z M1052.98,548.24
		c-1.332,0-2.641-0.639-3.446-1.824c-1.292-1.901-0.798-4.49,1.103-5.782c5.044-3.429,10.233-6.657,15.422-9.598
		c2-1.133,4.54-0.431,5.674,1.569c1.133,2.001,0.43,4.541-1.57,5.674c-4.993,2.829-9.988,5.938-14.846,9.239
		C1054.6,548.006,1053.786,548.24,1052.98,548.24z M1381.475,544.803c-0.246,0-0.495-0.022-0.746-0.067
		c-5.633-1.018-11.389-2.105-17.598-3.327c-2.256-0.442-3.725-2.632-3.281-4.888c0.445-2.255,2.633-3.723,4.889-3.28
		c6.166,1.213,11.881,2.293,17.471,3.303c2.263,0.409,3.766,2.575,3.356,4.837C1385.202,543.392,1383.449,544.803,1381.475,544.803z
		 M1539.656,542.486c-1.664,0-3.234-1.004-3.877-2.647c-0.838-2.141,0.217-4.556,2.358-5.393c5.231-2.047,10.651-4.392,16.105-6.968
		c2.079-0.982,4.56-0.093,5.542,1.985c0.981,2.08,0.092,4.56-1.986,5.542c-5.625,2.657-11.221,5.078-16.627,7.194
		C1540.674,542.394,1540.16,542.486,1539.656,542.486z M1346.449,537.943c-0.281,0-0.566-0.029-0.852-0.088
		c-5.858-1.217-11.688-2.454-17.484-3.694c-2.248-0.48-3.681-2.693-3.199-4.94c0.48-2.249,2.691-3.682,4.94-3.201
		c5.782,1.237,11.595,2.47,17.437,3.684c2.252,0.468,3.696,2.672,3.229,4.923C1350.111,536.592,1348.379,537.943,1346.449,537.943z
		 M1083.983,530.706c-1.578,0-3.087-0.902-3.787-2.431c-0.957-2.09-0.039-4.56,2.052-5.517c5.498-2.518,11.17-4.819,16.857-6.838
		c2.166-0.77,4.546,0.363,5.315,2.529c0.77,2.166-0.363,4.546-2.53,5.315c-5.457,1.939-10.9,4.147-16.177,6.563
		C1085.152,530.584,1084.563,530.706,1083.983,530.706z M1311.545,530.51c-0.29,0-0.584-0.031-0.878-0.092
		c-5.841-1.253-11.651-2.493-17.431-3.702c-2.25-0.471-3.693-2.677-3.222-4.927c0.471-2.25,2.676-3.693,4.927-3.222
		c5.793,1.213,11.618,2.455,17.471,3.711c2.248,0.482,3.68,2.695,3.197,4.942C1315.191,529.173,1313.465,530.51,1311.545,530.51z
		 M1571.93,527.331c-1.479,0-2.91-0.789-3.664-2.183c-1.094-2.021-0.342-4.547,1.68-5.642c4.945-2.678,10.105-5.625,15.335-8.758
		c1.972-1.182,4.528-0.541,5.71,1.431c1.182,1.971,0.541,4.528-1.431,5.709c-5.333,3.196-10.599,6.203-15.651,8.938
		C1573.279,527.168,1572.6,527.331,1571.93,527.331z M1276.613,523.236c-0.268,0-0.54-0.027-0.813-0.079
		c-6.246-1.237-11.956-2.32-17.457-3.309c-2.263-0.407-3.767-2.571-3.359-4.833c0.407-2.264,2.572-3.768,4.833-3.36
		c5.549,0.998,11.306,2.09,17.599,3.335c2.255,0.446,3.722,2.636,3.275,4.891C1280.3,521.863,1278.56,523.236,1276.613,523.236z
		 M1117.538,518.781c-1.85,0-3.539-1.243-4.025-3.117c-0.579-2.226,0.757-4.497,2.981-5.076c5.773-1.499,11.745-2.786,17.751-3.825
		c2.265-0.391,4.419,1.128,4.811,3.394c0.392,2.264-1.127,4.418-3.393,4.81c-5.78,1-11.525,2.238-17.075,3.679
		C1118.236,518.737,1117.884,518.781,1117.538,518.781z M1241.493,516.958c-0.212,0-0.426-0.016-0.643-0.05
		c-6.05-0.938-11.949-1.759-17.535-2.441c-2.282-0.279-3.906-2.354-3.627-4.636c0.279-2.282,2.357-3.905,4.637-3.627
		c5.674,0.693,11.662,1.527,17.799,2.478c2.272,0.352,3.829,2.478,3.477,4.751C1245.283,515.488,1243.511,516.958,1241.493,516.958z
		 M1206.082,512.68c-0.114,0-0.228-0.005-0.342-0.014c-6.016-0.491-11.938-0.83-17.603-1.01c-2.297-0.073-4.101-1.995-4.028-4.292
		c0.073-2.299,1.988-4.102,4.293-4.029c5.8,0.184,11.86,0.532,18.013,1.032c2.291,0.187,3.997,2.196,3.811,4.487
		C1210.049,511.031,1208.228,512.68,1206.082,512.68z M1152.618,512.674c-2.121,0-3.934-1.613-4.139-3.768
		c-0.218-2.289,1.461-4.321,3.75-4.538c5.857-0.558,11.942-0.924,18.084-1.09c2.292-0.063,4.211,1.751,4.273,4.049
		c0.062,2.298-1.751,4.211-4.05,4.273c-5.954,0.16-11.849,0.517-17.52,1.055C1152.883,512.668,1152.75,512.674,1152.618,512.674z
		 M1602.566,509.039c-1.365,0-2.703-0.671-3.5-1.903c-1.248-1.931-0.695-4.507,1.236-5.755c4.695-3.036,9.664-6.343,14.766-9.831
		c1.898-1.298,4.488-0.811,5.786,1.088c1.298,1.897,0.811,4.487-1.088,5.784c-5.161,3.529-10.188,6.876-14.944,9.95
		C1604.123,508.823,1603.34,509.039,1602.566,509.039z M2106.721,499.859c-1.412,0-2.789-0.719-3.57-2.018
		c-2.973-4.942-6.205-9.867-9.605-14.638c-1.334-1.872-0.898-4.471,0.973-5.806c1.871-1.334,4.471-0.899,5.807,0.974
		c3.525,4.945,6.876,10.052,9.96,15.178c1.186,1.97,0.549,4.527-1.421,5.712C2108.191,499.667,2107.452,499.859,2106.721,499.859z
		 M1632.057,488.93c-1.302,0-2.584-0.608-3.396-1.75c-1.332-1.873-0.893-4.472,0.98-5.804c4.463-3.173,9.186-6.579,14.438-10.41
		c1.857-1.355,4.462-0.948,5.816,0.909c1.355,1.858,0.947,4.461-0.91,5.816c-5.279,3.851-10.029,7.276-14.519,10.469
		C1633.734,488.681,1632.891,488.93,1632.057,488.93z M2086.051,470.826c-1.195,0-2.381-0.512-3.204-1.502
		c-3.692-4.445-7.624-8.846-11.684-13.083c-1.59-1.66-1.534-4.295,0.126-5.885c1.66-1.591,4.295-1.534,5.886,0.125
		c4.194,4.378,8.257,8.928,12.075,13.522c1.469,1.769,1.227,4.393-0.541,5.862C2087.931,470.51,2086.988,470.826,2086.051,470.826z
		 M1660.93,467.914c-1.275,0-2.535-0.585-3.352-1.689c-1.365-1.849-0.974-4.455,0.875-5.821l14.353-10.616
		c1.849-1.367,4.456-0.976,5.821,0.874c1.367,1.848,0.977,4.455-0.873,5.82l-14.354,10.618
		C1662.656,467.649,1661.789,467.914,1660.93,467.914z M1689.656,446.725c-1.283,0-2.549-0.591-3.365-1.708
		c-1.355-1.856-0.95-4.46,0.906-5.816c5.286-3.862,10.026-7.287,14.491-10.472c1.872-1.334,4.471-0.899,5.806,0.973
		c1.334,1.872,0.899,4.472-0.973,5.806c-4.438,3.165-9.152,6.573-14.414,10.415C1691.367,446.464,1690.508,446.725,1689.656,446.725
		z M2061.398,445.071c-1.002,0-2.006-0.359-2.803-1.086c-4.281-3.903-8.777-7.74-13.362-11.405c-1.796-1.436-2.088-4.055-0.652-5.85
		c1.435-1.795,4.055-2.088,5.851-0.653c4.725,3.778,9.358,7.732,13.771,11.757c1.699,1.547,1.82,4.181,0.271,5.879
		C2063.654,444.614,2062.527,445.071,2061.398,445.071z M1718.729,426.042c-1.326,0-2.629-0.63-3.436-1.807
		c-1.302-1.895-0.82-4.486,1.076-5.787c5.156-3.54,10.176-6.898,14.92-9.983c1.927-1.252,4.506-0.706,5.759,1.222
		c1.253,1.927,0.706,4.505-1.222,5.758c-4.686,3.046-9.646,6.366-14.746,9.867C1720.359,425.805,1719.539,426.042,1718.729,426.042z
		 M2033.552,422.798c-0.825,0-1.659-0.245-2.386-0.754c-4.761-3.338-9.706-6.585-14.699-9.652c-1.959-1.203-2.572-3.766-1.369-5.725
		c1.202-1.958,3.765-2.572,5.725-1.369c5.137,3.154,10.226,6.495,15.123,9.93c1.883,1.32,2.338,3.916,1.018,5.797
		C2036.153,422.181,2034.863,422.798,2033.552,422.798z M1748.676,406.628c-1.41,0-2.785-0.717-3.566-2.011
		c-1.189-1.968-0.558-4.526,1.41-5.714c5.32-3.214,10.573-6.242,15.611-9c2.018-1.104,4.547-0.365,5.65,1.652
		c1.104,2.017,0.363,4.546-1.652,5.65c-4.936,2.702-10.085,5.67-15.305,8.823C1750.15,406.435,1749.408,406.628,1748.676,406.628z
		 M2003.166,404.135c-0.662,0-1.334-0.158-1.959-0.492c-5.145-2.749-10.445-5.382-15.755-7.827c-2.089-0.961-3.001-3.434-2.04-5.522
		c0.961-2.087,3.434-3.001,5.521-2.04c5.459,2.513,10.908,5.221,16.197,8.047c2.027,1.084,2.793,3.605,1.709,5.634
		C2006.091,403.337,2004.652,404.135,2003.166,404.135z M1779.996,389.557c-1.551,0-3.039-0.871-3.756-2.363
		c-0.994-2.074-0.119-4.56,1.953-5.554c1.881-0.902,3.762-1.78,5.645-2.634c3.596-1.632,7.316-3.174,11.055-4.585
		c2.15-0.812,4.553,0.274,5.363,2.425c0.813,2.15-0.273,4.552-2.425,5.364c-3.57,1.347-7.121,2.82-10.554,4.377
		c-1.829,0.83-3.656,1.684-5.484,2.559C1781.213,389.425,1780.6,389.557,1779.996,389.557z M1970.774,389.221
		c-0.504,0-1.016-0.093-1.513-0.286c-5.453-2.13-11.027-4.117-16.569-5.907c-2.188-0.707-3.388-3.053-2.681-5.24
		c0.706-2.188,3.053-3.389,5.24-2.682c5.699,1.842,11.432,3.885,17.038,6.074c2.141,0.837,3.198,3.25,2.362,5.392
		C1974.012,388.215,1972.439,389.221,1970.774,389.221z M1936.841,378.263c-0.343,0-0.691-0.042-1.039-0.132
		c-5.685-1.461-11.456-2.753-17.153-3.842c-2.259-0.43-3.739-2.611-3.309-4.87c0.432-2.257,2.611-3.738,4.87-3.307
		c5.868,1.121,11.812,2.451,17.663,3.956c2.227,0.571,3.568,2.841,2.996,5.067C1940.387,377.015,1938.695,378.263,1936.841,378.263z
		 M1813.326,376.988c-1.832,0-3.51-1.217-4.014-3.068c-0.604-2.218,0.703-4.506,2.921-5.111c5.768-1.573,11.742-2.917,17.758-3.998
		c2.263-0.407,4.427,1.099,4.833,3.361c0.406,2.263-1.1,4.427-3.361,4.832c-5.775,1.038-11.508,2.328-17.039,3.837
		C1814.057,376.941,1813.688,376.988,1813.326,376.988z M1901.814,371.588c-0.172,0-0.344-0.01-0.518-0.032
		c-5.835-0.724-11.719-1.251-17.484-1.568c-2.296-0.125-4.055-2.089-3.928-4.384c0.126-2.296,2.092-4.054,4.384-3.929
		c5.956,0.327,12.029,0.872,18.053,1.619c2.282,0.283,3.901,2.362,3.618,4.644C1905.679,370.044,1903.885,371.588,1901.814,371.588z
		 M1848.393,370.654c-2.121,0-3.934-1.613-4.139-3.768c-0.217-2.288,1.461-4.32,3.75-4.538c5.936-0.566,12.035-0.907,18.129-1.016
		c2.314-0.038,4.195,1.79,4.236,4.089c0.04,2.298-1.791,4.194-4.089,4.235c-5.88,0.105-11.764,0.434-17.487,0.979
		C1848.658,370.648,1848.525,370.654,1848.393,370.654z"/>
</g>
<g>
	<polygon style="fill:#BDCDFF;" points="2110.271,471.202 2096.791,493.278 2212.828,572.445 	"/>
	<polygon style="fill:#BDCDFF;" points="2084.828,519.775 2091.852,545.093 2207.667,568.796 	"/>
	<polygon style="fill:#FFFFFF;" points="2212.828,572.445 2017.145,505.746 2084.825,481.945 	"/>
	<polygon style="fill:#FFFFFF;" points="2110.271,471.202 2212.828,572.445 2152.803,453.244 	"/>
</g>
<ellipse style="fill:#95A6DB;" cx="1296.547" cy="1796.159" rx="1095.134" ry="61.911"/>
<g>
	
		<ellipse transform="matrix(0.7071 -0.7071 0.7071 0.7071 -358.2126 1437.5065)" style="fill:#F5A3B7;" cx="1556.117" cy="1151.154" rx="254.229" ry="254.229"/>
	<g>
		<path style="fill:#FFFFFF;" d="M1739.848,1137.232l-174.12-113.504c-9.966-6.496-23.163,0.654-23.163,12.551v229.771
			c0,11.896,13.197,19.048,23.163,12.551l174.12-113.503C1749.914,1158.537,1749.914,1143.794,1739.848,1137.232z"/>
		<path style="fill:#FFFFFF;" d="M1452.854,1021.25h39.438c5.959,0,10.789,4.83,10.789,10.789v237.494
			c0,5.958-4.83,10.789-10.789,10.789h-39.438c-5.959,0-10.789-4.831-10.789-10.789v-237.494
			C1442.064,1026.08,1446.895,1021.25,1452.854,1021.25z"/>
	</g>
</g>
<g>
	<path style="fill:#4D6AC4;" d="M1019.102,1787.363h-311.84c-10.548,0-16.533-12.079-10.144-20.471l14.382-18.893
		c10.82-14.214,30.743-22.962,52.295-22.962h195.974c19.915,0,38.553,7.479,49.833,19.994l18.97,21.047
		C1035.966,1774.281,1030.145,1787.363,1019.102,1787.363z"/>
	<rect x="830.949" y="1566.951" style="fill:#4D6AC4;" width="67.394" height="195.143"/>
	<g>
		<path style="fill:#3C3F75;" d="M1038.787,510.117v517.874H693.677V518.857c-0.15-2.948-0.225-5.919-0.225-8.891
			c0-95.344,77.302-172.635,172.646-172.635c95.344,0,172.636,77.291,172.636,172.635v0.151H1038.787z"/>
		<rect x="693.673" y="993.693" style="fill:#323461;" width="344.986" height="23.369"/>
		<path style="fill:#627CCC;" d="M1070.095,992.638v248.71v104.379h-0.199c0,0.169,0,0.367-0.033,0.565
			c-3.687,110.823-94.716,199.527-206.436,199.527c-111.719,0-202.715-88.704-206.402-199.527c-0.033-0.197-0.033-0.396-0.033-0.565
			h-0.565v-103.682V992.638H632.15v341.368c-0.199,3.95-0.299,7.936-0.299,11.922c0,127.893,103.683,231.573,231.575,231.573
			c127.893,0,231.576-103.681,231.576-231.573v-0.201h0.066V992.638H1070.095z"/>
		<path style="fill:#627CCC;" d="M1056.625,1016.642v319.015h-0.065v0.171c0,73.108-40.619,136.725-100.524,169.515
			c-27.491,15.059-59.047,23.618-92.609,23.618c-106.659,0-193.122-86.474-193.122-193.133c0-3.325,0.075-6.649,0.247-9.943
			v-309.242H1056.625z"/>
		<path style="fill:#627CCC;" d="M1071.395,1008.064h33.804v-93.085h-33.804c-18.4,0-33.316,14.916-33.316,33.314v26.456
			C1038.079,993.149,1052.995,1008.064,1071.395,1008.064z"/>
		<path style="fill:#627CCC;" d="M660.347,1008.064h-33.805v-93.085h33.805c18.399,0,33.315,14.916,33.315,33.314v26.456
			C693.662,993.149,678.746,1008.064,660.347,1008.064z"/>
		<g>
			<path style="fill:#3C3F75;" d="M538.121,903.713v107.777c0,0.254,0,0.498,0.022,0.743c0.116,4.407,1.359,8.526,3.451,12.094
				c4.417,7.571,12.615,12.647,22.001,12.647h68.595V878.229h-68.595c-9.386,0-17.584,5.076-22.001,12.647
				c-2.092,3.568-3.335,7.698-3.451,12.105C538.121,903.225,538.121,903.47,538.121,903.713z"/>
			<g>
				<path style="fill:#323461;" d="M538.143,902.981h94.089v-12.105h-90.639C539.502,894.444,538.259,898.574,538.143,902.981z"/>
				
					<rect x="538.358" y="915.145" transform="matrix(-1 -1.224647e-16 1.224647e-16 -1 1170.5952 1842.392)" style="fill:#323461;" width="93.878" height="12.102"/>
				
					<rect x="538.358" y="939.415" transform="matrix(-1 -1.224647e-16 1.224647e-16 -1 1170.5952 1890.9335)" style="fill:#323461;" width="93.878" height="12.104"/>
				
					<rect x="538.358" y="963.687" transform="matrix(-1 -1.224647e-16 1.224647e-16 -1 1170.5952 1939.476)" style="fill:#323461;" width="93.878" height="12.102"/>
				
					<rect x="538.358" y="987.958" transform="matrix(-1 -1.224647e-16 1.224647e-16 -1 1170.5952 1988.0175)" style="fill:#323461;" width="93.878" height="12.102"/>
				<path style="fill:#323461;" d="M538.143,1012.233c0.116,4.407,1.359,8.526,3.451,12.094h90.639v-12.094H538.143z"/>
			</g>
		</g>
		<path style="fill:#323461;" d="M895.6,1083.537c0,17.75-14.39,32.139-32.139,32.139c-17.75,0-32.14-14.389-32.14-32.139
			s14.39-32.141,32.14-32.141C881.21,1051.396,895.6,1065.787,895.6,1083.537z"/>
		<rect x="670.529" y="1311.93" style="fill:#7991DB;" width="287.534" height="13.405"/>
		<path style="fill:#323461;" d="M1038.787,781.001v235.641h-78.299c0.375-147.14,75.393-233.912,75.393-233.912L1038.787,781.001z"
			/>
		<path style="fill:#4D6AC4;" d="M1056.625,1016.642v319.015h-0.065v0.171c0,73.108-40.619,136.725-100.524,169.515
			c1.695-141.434,4.28-372.055,4.441-477.352c0.01-3.561,0.01-6.973,0.01-10.232v-1.116H1056.625z"/>
		<rect x="958.234" y="1311.93" style="fill:#627CCC;" width="98.213" height="13.405"/>
	</g>
	<g>
		<g>
			
				<rect x="741.167" y="432.904" transform="matrix(0.7098 -0.7044 0.7044 0.7098 -75.906 698.5531)" style="fill:#323461;" width="137.331" height="16.99"/>
		</g>
		<g>
			
				<rect x="720.603" y="472.022" transform="matrix(0.7071 -0.7071 0.7071 0.7071 -92.6166 737.4392)" style="fill:#323461;" width="246.503" height="16.99"/>
		</g>
		<g>
			
				<rect x="848.187" y="370.995" transform="matrix(0.6811 -0.7322 0.7322 0.6811 -46.3772 766.4369)" style="fill:#323461;" width="16.989" height="130.929"/>
		</g>
		<g>
			
				<rect x="816.418" y="417.431" transform="matrix(0.6864 -0.7272 0.7272 0.6864 -104.5213 756.4894)" style="fill:#323461;" width="16.989" height="164.018"/>
		</g>
		<g>
			
				<rect x="792.41" y="493.628" transform="matrix(0.6983 -0.7158 0.7158 0.6983 -167.4809 745.749)" style="fill:#323461;" width="16.989" height="155.841"/>
		</g>
	</g>
	<g>
		<path style="fill:#F5A3B7;" d="M1160.288,316.587l-105.76,91.342c-6.613,5.71-16.603,4.98-22.313-1.633l0,0
			c-5.711-6.612-4.98-16.602,1.632-22.314l105.76-91.341c6.612-5.71,16.603-4.98,22.313,1.633l0,0
			C1167.631,300.886,1166.9,310.876,1160.288,316.587z"/>
		<path style="fill:#F5A3B7;" d="M1192.086,421.549l-106.02,44.117c-7.222,3.004-15.513-0.413-18.518-7.635l-0.774-1.86
			c-3.006-7.221,0.413-15.512,7.635-18.518l106.02-44.117c7.222-3.005,15.513,0.414,18.518,7.635l0.774,1.86
			C1202.726,410.253,1199.308,418.543,1192.086,421.549z"/>
	</g>
	<g>
		<path style="fill:#F5A3B7;" d="M613.293,603.327l-117.632-9.135c-8.013-0.622-14.004-7.622-13.382-15.635l0.16-2.064
			c0.622-8.013,7.622-14.004,15.636-13.382l117.632,9.135c8.013,0.622,14.004,7.622,13.382,15.636l-0.16,2.064
			C628.307,597.958,621.306,603.95,613.293,603.327z"/>
		<path style="fill:#F5A3B7;" d="M626.613,674.47l-91.555,38.187c-6.089,2.539-8.965,9.533-6.426,15.623l0.382,0.916
			c2.54,6.089,9.534,8.965,15.622,6.425l91.555-38.187c6.088-2.539,8.966-9.534,6.426-15.623l-0.382-0.916
			C639.695,674.807,632.701,671.93,626.613,674.47z"/>
		<path style="fill:#F5A3B7;" d="M621.548,652.018l-151.751,24.307c-8.5,1.362-16.496-4.426-17.857-12.926v-0.001
			c-1.362-8.5,4.425-16.495,12.926-17.856l151.751-24.306c8.501-1.362,16.495,4.425,17.857,12.925l0,0
			C635.836,642.662,630.049,650.656,621.548,652.018z"/>
	</g>
</g>
<g>
	<path style="fill:#95A6DB;" d="M2119.722,1044.305h-96.952c-25.027-601.514-896.978-602.28-922.352,0h-96.961
		C1032.747,314.053,2090.687,314.581,2119.722,1044.305z"/>
	<path style="fill:#494C7F;" d="M2022.905,1043.392c-144.257,0.125-121.05-270.177-312.259-359.879
		c-150.156-79.545-351.559-19.475-433.598,129.35c-36.075,83.749-92.997,229.242-176.5,230.529
		C1125.924,441.119,1997.879,441.878,2022.905,1043.392z"/>
	<rect x="2022.77" y="1043.779" style="fill:#95A6DB;" width="96.955" height="318.541"/>
	<path style="fill:#8397D6;" d="M2022.566,1202.24v174.519h96.959v-71.029c-9.961-5.939-20.673-10.297-31.918-12.904l2.944-14.398
		c6.759-33.015-14.536-65.238-47.54-71.998L2022.566,1202.24z"/>
	<g>
		<path style="fill:#BBC8F0;" d="M1994.432,1714.846l3.6,0.738c35.153,7.199,72.481-3.238,104.086-29.101l26.195-21.438
			l46.926-219.555l-16.015-34.279c-18.526-39.652-50.159-66.457-87.438-74.09l0,0L1994.432,1714.846z"/>
		<path style="fill:#494C7F;" d="M2077.453,1323.328l-83.719,408.807c-6.76,33.008-39.016,54.298-72.024,47.538l-105.185-21.541
			c-33.009-6.76-54.271-39.009-47.512-72.019l83.721-408.805c6.76-33.012,38.982-54.279,71.992-47.518l105.184,21.539
			C2062.919,1258.092,2084.215,1290.318,2077.453,1323.328z"/>
		<path style="fill:#3C3F75;" d="M1978.271,1240.756l-108.2,528.342l-53.546-10.966c-33.009-6.76-54.271-39.009-47.512-72.019
			l83.721-408.805c6.76-33.012,38.982-54.279,71.992-47.518L1978.271,1240.756z"/>
	</g>
	<rect x="1003.408" y="1043.492" style="fill:#95A6DB;" width="96.959" height="318.545"/>
	<path style="fill:#8397D6;" d="M1100.367,1202.24v174.519h-96.959v-71.029c9.961-5.939,20.672-10.297,31.917-12.904l-2.945-14.398
		c-6.759-33.015,14.536-65.238,47.541-71.998L1100.367,1202.24z"/>
	<g>
		<path style="fill:#BBC8F0;" d="M1128.702,1714.563l-3.6,0.737c-35.154,7.199-72.482-3.237-104.086-29.101l-26.195-21.438
			l-46.926-219.557l16.016-34.279c18.526-39.65,50.159-66.455,87.437-74.09l0,0L1128.702,1714.563z"/>
		<path style="fill:#494C7F;" d="M1045.679,1323.044l83.72,408.807c6.76,33.009,39.015,54.298,72.025,47.538l105.184-21.541
			c33.009-6.76,54.271-39.01,47.512-72.018l-83.72-408.807c-6.761-33.01-38.983-54.277-71.992-47.518l-105.185,21.541
			C1060.214,1257.807,1038.918,1290.035,1045.679,1323.044z"/>
		<path style="fill:#3C3F75;" d="M1144.862,1240.473l108.2,528.341l53.546-10.966c33.009-6.76,54.271-39.01,47.512-72.018
			l-83.72-408.807c-6.761-33.01-38.983-54.277-71.992-47.518L1144.862,1240.473z"/>
	</g>
</g>
<g>
	<g>
		<path style="fill:#8A284C;" d="M2233.966,1760.088c9.89,41.526,45.237,18.686,37.845,44.932c-0.545,1.935-2.383,3.229-4.393,3.305
			l-20.756,0.795c-2.003,0.076-3.977-0.496-5.631-1.628c-10.95-7.497-18.379-18.058-42.029-19.339
			c0.18-10.098-0.279-24.516,3.057-29.669L2233.966,1760.088z"/>
		<path style="fill:#4364CC;" d="M2179.268,1468.678c0,0,60.365,92.068,68.698,120.707c8.333,28.637-9.1,77.164-5.946,174.961
			c-18.867,4.897-44.023,0.688-44.023,0.688s-15.14-122.669,2.67-151.635c-26.685-40.717-93.709-129.607-93.709-129.607
			L2179.268,1468.678z"/>
	</g>
	<g>
		<path style="fill:#8A284C;" d="M2145.791,1773.474c15.359,20.907,53.698,8.543,52.16,36.604
			c-58.11-0.924-82.266-0.799-82.266-0.799c0.139-6.447,1.437-21.74,2.835-27.719L2145.791,1773.474z"/>
		<path style="fill:#768FDB;" d="M2163.796,1450.066c0,0,19.249,150.207,14.806,179.701c-4.444,29.492-18.211,52.577-18.693,150.422
			c-19.036,4.194-48.127,7.963-48.127,7.963s-12.267-118.016,12.963-150.508c-7.149-48.154-41.227-169.273-41.227-169.273
			L2163.796,1450.066z"/>
	</g>
	<g>
		<path style="fill:#C4204A;" d="M2262.408,1383.942l23.467-26.314c0.511-0.567,1.234-0.898,1.999-0.911l19.323-0.113
			c0.55-0.012,2.254,3.045,1.885,3.451l-16.553,14.711c-0.077,0.084-0.175,0.146-0.283,0.18l-28.387,10.531
			C2263.25,1385.662,2261.982,1384.415,2262.408,1383.942z"/>
		<path style="fill:#E62552;" d="M2264.2,1385.707l22.356-24.811c0.512-0.566,1.236-0.896,2-0.911l19.92-0.356
			c0.55-0.01,0.846,0.642,0.477,1.051l-15.742,17.356c-0.076,0.084-0.174,0.145-0.283,0.179l-28.078,8.515
			C2264.24,1386.912,2263.773,1386.18,2264.2,1385.707z"/>
		<path style="fill:#F37A50;" d="M2220.028,1408.334l16.168-7.926c0,0,15.948-16.14,18.316-19.746
			c3.548-1.796,10.259-6.316,11.769-6.488s4.602,0.294,4.602,0.294l-7.486,8.516c0,0,3.555,0.706,8.092-2.177
			c4.535-2.881,12.549-10.607,16.473-9.11c1.393,1.231,1.393,1.231,1.393,1.231s2.477-2.646,4.813-1.662s-2.31,12.635-15.493,24.983
			c-0.875,3.298-5.219,9.077-5.219,9.077l-26.657,9.361L2220.028,1408.334z"/>
		<path style="fill:#C4204A;" d="M2290.199,1364.641c-0.947,0.947-2.309,1.121-3.041,0.389c-0.732-0.733-0.559-2.094,0.389-3.041
			c0.947-0.947,2.309-1.121,3.041-0.389C2291.32,1362.332,2291.146,1363.693,2290.199,1364.641z"/>
		<path style="fill:#F37A50;" d="M2144.739,1289.443c4.796,6.217-32.778,12.978-37.815,0.057
			c-5.037-12.922,3.613-48.463,3.613-48.463l34.26,7.271C2144.797,1248.309,2138.496,1281.35,2144.739,1289.443z"/>
		<g>
			<path style="fill:#F37A50;" d="M2103.043,1212.023c-2.884,27.488,12.279,51.608,33.867,53.873
				c21.59,2.266,41.429-18.181,44.313-45.668c2.884-27.488-12.278-51.607-33.867-53.873
				C2125.768,1164.09,2105.928,1184.537,2103.043,1212.023z"/>
			<path d="M2168.47,1228.322c0.764,2.125,3.106,3.231,5.233,2.467c2.127-0.763,3.232-3.105,2.469-5.232
				c-0.764-2.127-3.106-3.232-5.233-2.469C2168.812,1223.851,2167.706,1226.194,2168.47,1228.322z"/>
			<path d="M2141.639,1222.46c0.826,2.304,3.363,3.499,5.666,2.673c2.302-0.826,3.498-3.363,2.672-5.666
				c-0.826-2.302-3.363-3.498-5.666-2.672C2142.009,1217.621,2140.813,1220.158,2141.639,1222.46z"/>
			<path style="fill:#DE623C;" d="M2160.656,1227.468c0.867,6.443,2.073,14.368,2.073,14.368s-4.233,4.465-11.254,1.379
				c3.511,0.115,7.335-0.553,7.913-5.039C2159.967,1233.688,2160.656,1227.468,2160.656,1227.468z"/>
			<g>
				<path style="fill:#201D40;" d="M2169.671,1218.979c0.46,0.275,1.048,0.309,1.554,0.036c0.049-0.026,1.754-0.896,3.351-0.286
					c1.126,0.43,2.028,1.535,2.679,3.287c0.302,0.813,1.205,1.226,2.018,0.924c0.813-0.301,1.227-1.205,0.925-2.018
					c-0.987-2.655-2.516-4.385-4.544-5.142c-2.971-1.108-5.807,0.41-5.926,0.477c-0.761,0.416-1.04,1.369-0.625,2.131
					C2169.24,1218.641,2169.439,1218.84,2169.671,1218.979z"/>
			</g>
			<g>
				<path style="fill:#201D40;" d="M2149.258,1214.506c-0.524,0.108-1.092-0.055-1.479-0.478c-0.039-0.04-1.362-1.423-3.07-1.373
					c-1.205,0.034-2.42,0.782-3.611,2.222c-0.553,0.668-1.541,0.762-2.209,0.209c-0.669-0.553-0.762-1.542-0.21-2.21
					c1.806-2.182,3.819-3.313,5.983-3.36c3.17-0.069,5.348,2.299,5.439,2.4c0.582,0.643,0.531,1.636-0.111,2.217
					C2149.775,1214.326,2149.521,1214.45,2149.258,1214.506z"/>
			</g>
			<path style="fill:#201D40;" d="M2111.069,1229.482c14.222-11.906,10.295-30.098,10.295-30.098
				c6.897,0.451,8.829,3.401,8.829,3.401c5.546-6.368,4.195-12.365,4.195-12.365c14.947-1.628,19.324,8.944,30.732,15.184
				c15.623,8.543,38.062,7.438,45.49-12.443c1.076-2.878-1.656-5.664-4.566-4.68c-2.699,0.914-6.07,1.334-9.82,0.209
				c0,0,4.564-3.005,6.216-8.421c0.911-2.987-2.183-5.565-5.021-4.261c-4.253,1.957-11.436,2.952-22.348-2.296
				c-7.264-3.493-21.473-20.461-33.025-21.007c-9.443-0.447-18.563,5.236-24.533,15.278c0,0-22.531-3.633-31.227,19.896
				c-8.543,23.116,23.48,58.829,23.48,58.829S2110.51,1235.474,2111.069,1229.482z"/>
			<path style="fill:#FFFFFF;" d="M2158.917,1253.729c0.891-0.577,0.669-1.932-0.36-2.184c-2.619-0.641-6.918-1.785-10.874-3.27
				c-3.956-1.483-7.948-3.444-10.343-4.684c-0.941-0.486-1.999,0.389-1.707,1.407c0.899,3.136,3.263,8.268,9.326,10.542
				C2151.023,1257.814,2156.179,1255.499,2158.917,1253.729z"/>
			<g>
				<path style="fill:#F37A50;" d="M2121.195,1213.291c4.627,4.564,5.35,11.334,1.613,15.12c-3.734,3.786-10.514,3.155-15.141-1.409
					c-4.626-4.564-5.348-11.335-1.613-15.121C2109.791,1208.095,2116.569,1208.726,2121.195,1213.291z"/>
			</g>
			<g>
				<ellipse style="fill:#FFFFFF;" cx="2113.541" cy="1221.523" rx="5.207" ry="5.057"/>
				<path style="fill:#FFFFFF;" d="M2119.439,1233.836l-0.227,0.111c-1.038,0.506-2.287,0.072-2.793-0.964l-3.986-8.195
					c-0.504-1.037-0.072-2.287,0.965-2.792l0.228-0.109c1.037-0.506,2.287-0.074,2.792,0.963l3.986,8.195
					C2120.908,1232.082,2120.477,1233.332,2119.439,1233.836z"/>
			</g>
		</g>
		<path style="fill:#E62552;" d="M2186.501,1479.707c-26.8,5.469-74.985,14.909-100.469,4.975
			c-9.644-13.847-12.087-92.141-12.087-92.141c-2.79-80.588,6.875-92.547,28.67-119.548c9.145,4.202,32.037,7.784,42.102,7.862
			c0,0,22.806,31.662,27.255,54.654c4.511,23.314,5.022,64.764,5.441,88.505C2177.879,1450.382,2183.088,1463.097,2186.501,1479.707
			z"/>
		<path style="fill:#8A284C;" d="M2099.439,1297.457c-15.676,30.517-12.127,64.312,33.455,130.844
			c31.922-2.785,38.182-29.391,38.182-29.391s-8.771-33.033-20.164-74.584C2139.52,1282.773,2106.3,1284.101,2099.439,1297.457z"/>
		<path style="fill:#8A284C;" d="M2238.797,1392.541l-68.348,5.453c0,0-29.312-5.346-37.555,30.307
			c14.671,11.422,52.54,15.705,114.654-7.354C2240.976,1412,2238.797,1392.541,2238.797,1392.541z"/>
	</g>
</g>
<g>
	<g>
		<g>
			<path style="fill:#323461;" d="M641.528,1407.238c-2.953,0-6.389-0.316-10.383-1.082c-23.233-1.447-25.329-27.396-27.356-52.491
				c-1.265-15.659-2.572-31.851-8.999-41.362c-15.657-23.174-37.78-8.914-38.714-8.297l-2.377-3.572
				c0.264-0.176,26.58-17.271,44.645,9.467c7.058,10.445,8.412,27.209,9.721,43.42c1.969,24.391,3.831,47.428,23.47,48.561
				l0.285,0.036c18.917,3.661,22.908-3.546,22.945-3.62l3.875,1.842C658.48,1400.488,655.172,1407.236,641.528,1407.238z"/>
		</g>
		<path style="fill:#494C7F;" d="M610.148,1517.362h99.868l0,0c0-9.573-7.76-17.333-17.333-17.333h-65.201
			C617.908,1500.029,610.148,1507.789,610.148,1517.362L610.148,1517.362z"/>
		
			<rect x="648.777" y="1378.061" transform="matrix(-1 -1.224647e-16 1.224647e-16 -1 1312.3022 2878.0898)" style="fill:#323461;" width="14.749" height="121.969"/>
		<polygon style="fill:#323461;" points="515.264,1289.434 521.008,1284.043 678.662,1413.887 672.918,1419.277 		"/>
		<g>
			<path style="fill:#95A6DB;" d="M563.815,1319.677l-46.938,55.478c-3.689,4.36-10.214,4.904-14.574,1.217l-12.544-10.615
				c-4.36-3.689-4.904-10.213-1.215-14.573l46.938-55.478L563.815,1319.677z"/>
			<path style="fill:#323461;" d="M513.47,1318.371l18.784-22.34c0.327-0.457,0.689-0.888,1.086-1.291l0.178-0.211l0.021,0.017
				c1.974-1.905,4.732-3.129,8.126-3.371c9.502-0.68,20.349,6.56,24.226,16.168c2.571,6.369,1.43,12.18-2.396,15.572l-18.48,21.979
				L513.47,1318.371z"/>
		</g>
		<path style="fill:#E3EAFF;" d="M493.205,1357.114l-0.335-0.274c-0.969-0.793-1.112-2.221-0.32-3.189l20.511-25.08
			c0.793-0.969,2.221-1.111,3.19-0.319l0.335,0.275c0.969,0.792,1.112,2.221,0.32,3.189l-20.511,25.079
			C495.602,1357.764,494.174,1357.906,493.205,1357.114z"/>
	</g>
	<g>
		<g id="с_6_">
			<path id="с_15_" style="fill:#0E6A41;" d="M851.049,1785.633L851.049,1785.633c-4.142,0-7.499-3.357-7.499-7.5v-132.87h14.998
				v132.87C858.548,1782.275,855.191,1785.633,851.049,1785.633z"/>
			<path id="с_14_" style="fill:#0E6A41;" d="M903.671,1785.633L903.671,1785.633c-4.142,0-7.5-3.357-7.5-7.5v-132.87h14.999
				v132.87C911.17,1782.275,907.813,1785.633,903.671,1785.633z"/>
			<path id="с_13_" style="fill:#0E6A41;" d="M972.72,1785.633L972.72,1785.633c-4.142,0-7.5-3.357-7.5-7.5v-132.87h14.998v132.87
				C980.219,1782.275,976.862,1785.633,972.72,1785.633z"/>
			<path id="с_12_" style="fill:#0E6A41;" d="M1025.342,1785.633L1025.342,1785.633c-4.142,0-7.5-3.357-7.5-7.5v-132.87h14.999
				v132.87C1032.842,1782.275,1029.484,1785.633,1025.342,1785.633z"/>
			<path id="с_11_" style="fill:#3F964F;" d="M942.367,1448.07v158.117c0,1.799-1.459,3.257-3.258,3.257h-98.036
				c-9.891,0-17.909,8.019-17.909,17.909l0,0c0,9.891,8.018,17.909,17.909,17.909h101.293h17.909
				c9.891,0,17.909-8.019,17.909-17.909v-17.909V1448.07c0-9.891-8.018-17.91-17.909-17.91h-0.001
				C950.385,1430.16,942.367,1438.18,942.367,1448.07z"/>
			<rect id="с_10_" x="960.276" y="1430.16" style="fill:#3F964F;" width="77.511" height="182.189"/>
			<path id="с_9_" style="fill:#0E6A41;" d="M1019.877,1448.07v158.117c0,1.799-1.458,3.257-3.258,3.257h-98.036
				c-9.891,0-17.909,8.019-17.909,17.909l0,0c0,9.891,8.018,17.909,17.909,17.909h101.293h17.909
				c9.891,0,17.909-8.019,17.909-17.909v-17.909V1448.07c0-9.891-8.018-17.91-17.909-17.91l0,0
				C1027.896,1430.16,1019.877,1438.18,1019.877,1448.07z"/>
		</g>
		<g>
			<g>
				<path style="fill:#F37A50;" d="M864.646,1486.682c7.446,4.144,7.527,29.945,4.96,31.461
					c-85.861,5.971-107.52,2.836-107.52,2.836l1.081-14.612C763.168,1506.366,812.694,1490.756,864.646,1486.682z"/>
				<path style="fill:#F37A50;" d="M945.509,1439.49c-13.187,21.09-68.011,78.152-76.97,78.962l-10.123-31.11
					c0,0,51.411-68.028,60.54-78.514C934.721,1390.634,967.105,1405.1,945.509,1439.49z"/>
				<g>
					<g>
						<g>
							<g>
								<path style="fill:#F37A50;" d="M747.396,1504.293c4.78,0.129,9.854,0.52,16.667,1.695l4.974,2.597l-0.527,8.45
									c-7.156,9.82-28.577,11.41-30.537,11.41c-5.095,0-7.488,0.316-7.824-0.395c-0.335-0.711-1.179-5.32,6.235-5.558
									c9.303-0.298,3.837-8.193-15.455-2.827c-4.831,1.343-13.432-1.707-9.948-4.844
									C714.818,1511.363,725.646,1503.713,747.396,1504.293z"/>
							</g>
						</g>
					</g>
				</g>
			</g>
			<path style="fill:#0D0C1A;" d="M913.963,1326.806c-1.586-21.592,4.657-40.667,21.873-50.382c17.45-9.846,39.31-0.19,39.31-0.19
				l0,0c0.002,0,18.504-6.582,35.272,11.889c16.769,18.473,4.085,34.727,10.945,48.199c4.063,7.977,24.72,9.621,19.384,35.607
				c-1.539,7.494-10.552,12.539-18.187,13.041c-13.413,0.881-25.904-4.305-31.341,0.881c-17.917,17.086-57.623,10.906-63.179-4.723
				c-1.723-4.847-37.44,4.531-33.876-28.477C895.969,1335.926,915.38,1346.1,913.963,1326.806z"/>
			<g>
				<g>
					<g>
						<polygon style="fill:#F37A50;" points="946.692,1396.604 975.049,1391.369 985.682,1405.516 963.083,1451.849 
							929.844,1423.637 						"/>
					</g>
				</g>
			</g>
			<g>
				<path style="fill:#3F964F;" d="M920.702,1359.424l-5.087-1.697c-0.199,0.597-0.124,1.082-0.106,1.174l-0.056-0.256
					c-0.349-1.539-1.408-6.221,1.266-10.409c1.884-2.951,5.145-4.943,9.694-5.922l1.128,5.243c-3.097,0.666-5.217,1.865-6.301,3.564
					c-1.47,2.303-0.83,5.131-0.556,6.34C920.816,1358.053,920.955,1358.665,920.702,1359.424z"/>
			</g>
			<path style="fill:#95A6DB;" d="M927.389,1361.723c0,3.521-2.924,6.377-6.532,6.377c-3.607,0-6.532-2.855-6.532-6.377
				c0-3.522,2.925-6.377,6.532-6.377C924.465,1355.346,927.389,1358.201,927.389,1361.723z"/>
			<g>
				<g>
					<g>
						<path style="fill:#F5A3B7;" d="M909.934,1508.316c0.485-8.814-13.762-45.018-6.262-63.24
							c5.461-14.658,14.586-39.264,25.76-43.369c5.272-1.938,10.69-3.287,17.261-5.104c0,0-3.707,18.472,4.015,19.091
							c14.865,1.192,24.341-24.325,24.341-24.325c8.014-0.766,44.777,11.313,44.76,14.332
							c-0.087,23.645-19.297,58.143-25.579,83.707c-2.472,27.609,7.16,60.649,7.196,63.791c0,0-59.141,16.625-94.198-2.676
							C906.495,1547.838,909.265,1520.49,909.934,1508.316z"/>
					</g>
				</g>
			</g>
			<path style="fill:#F5A3B7;" d="M992.529,1524.83c0,0,13.057,32.94,16.24,53.675c3.184,20.734-14.784,34.039-14.784,34.039H844.56
				c0,0-15.997-25.943-11.389-43.856c4.607-17.914,15.206-20.763,15.206-20.763L992.529,1524.83z"/>
			<path style="fill:#DE623C;" d="M842.559,1547.008c19.078-2.691,74.445,18.813,98.054,65.536h-66.047L842.559,1547.008z"/>
			<g>
				<path style="fill:#DE623C;" d="M863.481,1564.205c-2.466-2.699-4.704-6.025-6.675-9.498
					c-5.567-9.809-18.988-11.465-26.566-3.111c-27.539,30.361-86.246,99.578-99.334,108.191c-3.697,2.434-25.275,14.857-45.786,12.4
					c0,0-10.125,3.855-3.379,11.895c3.471,4.139,55.598,8.413,55.598,8.413l4.063-15.306
					c30.344-22.457,68.118-20.843,100.147-61.901C859.185,1592.68,863.481,1564.205,863.481,1564.205z"/>
				<path style="fill:#201D40;" d="M726.781,1701.326l-20.977,13.615l-2.883-3.438l17.015-15.867
					c-9.665-7.625-32.052-1.262-32.052-1.262c-7.332-4.736-21.625-20.098-23.1-28.328c4.696-5.851,20.332,6.184,20.332,6.184
					c-0.574,2.608,4.366,11.637,8.295,13.18c17.08,3.686,34.102-1.168,47.991-8.221
					C741.401,1677.189,753.008,1694.777,726.781,1701.326z"/>
			</g>
			<g>
				<path style="fill:#F37A50;" d="M863.786,1568.328c3.82,1.027,6.67,4.229,7.222,8.145c1.495,10.598,9.21,32.059-1.229,54.531
					c-25.625,55.174-40.755,91.527-43.443,105.767c6.694,12.535-19.997,46.779-20.395,49.021l-19.21-6.014
					c0,0,11.023-16.396,14.992-22.816c9.451-15.29,10.996-34.052,12.533-48.595c6.558-62.087-4.718-101.288,40.206-137.71
					C857.118,1568.505,860.482,1567.439,863.786,1568.328z"/>
				<path style="fill:#201D40;" d="M835.906,1763.032l-1.893,24.935l-4.481,0.208l-2.3-23.15
					c-11.925,3.063-20.439,24.721-20.439,24.721c-8.212,2.959-29.095,5.01-36.533,1.191c-1.806-7.282,17.246-12.418,17.246-12.418
					c1.725,2.037,11.9,3.586,15.51,1.396c13.287-11.345,20.506-27.823,23.32-43.144
					C826.336,1736.771,846.602,1738.207,835.906,1763.032z"/>
			</g>
			<g>
				<g>
					<g>
						<path style="fill:#F37A50;" d="M953.857,1373.445l23.025-3.449l-1.834,21.373c0,0-4.407,9.683-9.52,10.338l-18.837-5.104
							L953.857,1373.445z"/>
					</g>
				</g>
			</g>
			<g>
				<path style="fill:#F37A50;" d="M998.187,1342.543c-5.944,24.824-26.569,41.164-46.066,36.496
					c-19.498-4.668-30.485-28.578-24.541-53.402c5.944-24.826,26.569-41.166,46.067-36.498
					C993.144,1293.809,1004.131,1317.717,998.187,1342.543z"/>
				<path d="M936.717,1332.156c-0.858,1.725-2.952,2.426-4.675,1.566c-1.724-0.857-2.425-2.951-1.567-4.675
					c0.859-1.724,2.953-2.425,4.676-1.568C936.875,1328.34,937.576,1330.434,936.717,1332.156z"/>
				<path d="M964.102,1338.912c-0.929,1.867-3.195,2.627-5.061,1.695c-1.866-0.928-2.625-3.194-1.696-5.061
					c0.929-1.865,3.195-2.625,5.061-1.695C964.273,1334.781,965.032,1337.047,964.102,1338.912z"/>
				<g>
					<path style="fill:#0D0C1A;" d="M968.275,1335.787c-0.258-0.128-0.475-0.342-0.604-0.623c-1.892-4.08-7.003-4.875-7.054-4.883
						c-0.715-0.106-1.213-0.77-1.11-1.486c0.104-0.717,0.765-1.214,1.481-1.112c0.267,0.038,6.565,0.985,9.064,6.378
						c0.305,0.658,0.019,1.438-0.64,1.744C969.037,1335.979,968.62,1335.959,968.275,1335.787z"/>
				</g>
				<g>
					<path style="fill:#0D0C1A;" d="M929.113,1327.104c-0.126-0.063-0.244-0.147-0.348-0.253c-0.51-0.516-0.505-1.347,0.011-1.856
						c4.004-3.955,8.939-2.315,9.146-2.243c0.684,0.237,1.049,0.983,0.813,1.669c-0.236,0.684-0.979,1.047-1.663,0.814
						c-0.163-0.053-3.636-1.154-6.452,1.627C930.21,1327.267,929.601,1327.347,929.113,1327.104z"/>
				</g>
				<path style="fill:#DE623C;" d="M938.959,1339.739c-1.913,1.968-3.591,3.996-5.417,5.147c-0.616,0.387-0.813,1.207-0.456,1.84
					c1.476,2.617,5.783,4.771,8.425,5.895c0.386,0.163,0.702-0.342,0.387-0.619c-2.666-2.338-3.811-4.059-4.292-5.005
					c-0.239-0.47-0.233-1.022,0.005-1.492c0.546-1.08,1.634-3.282,2.371-5.106C940.237,1339.77,939.433,1339.252,938.959,1339.739z"
					/>
				<path style="fill:#F37A50;" d="M988.805,1342.7c-4.738,3.687-6.133,9.817-3.117,13.694c3.017,3.877,9.303,4.032,14.041,0.346
					c4.737-3.686,6.133-9.816,3.116-13.693C999.829,1339.17,993.542,1339.014,988.805,1342.7z"/>
				<g>
					<path style="fill:#DE623C;" d="M991.502,1355.269c-0.177-0.088-0.336-0.218-0.463-0.386c-1.819-2.421-1.99-5.14-0.457-7.275
						c1.569-2.186,4.483-3.186,6.929-2.377c0.689,0.229,1.062,0.97,0.835,1.658c-0.228,0.688-0.97,1.062-1.658,0.834
						c-1.339-0.443-3.085,0.18-3.973,1.416c-0.853,1.189-0.703,2.668,0.423,4.167c0.435,0.579,0.318,1.402-0.261,1.837
						C992.466,1355.453,991.933,1355.483,991.502,1355.269z"/>
				</g>
				<path style="fill:#FFFFFF;" d="M960.513,1359.533c0.549-0.74-0.044-1.776-0.961-1.667c-2.329,0.278-6.178,0.657-9.853,0.657
					s-7.525-0.379-9.853-0.657c-0.916-0.109-1.51,0.927-0.96,1.667c1.689,2.279,5.181,5.738,10.813,5.738
					C955.332,1365.271,958.824,1361.813,960.513,1359.533z"/>
			</g>
			<path style="fill:#0D0C1A;" d="M998.668,1340.347c-23.272-3.116-55.835-26.827-58.506-38.995
				c4.501-14.616,28.486-21.963,42.028-15.191C995.733,1292.932,1008.526,1321.953,998.668,1340.347z"/>
			<g>
				<g>
					<g>
						<g>
							<path style="fill:#F37A50;" d="M1132.187,1405.365c-9.88-9.967-3.399-20.186-3.399-20.186
								c-5.421-1.164-34.021,42.16-46.353,69.692c-21.511-21.68-59.414-50.957-69.663-52.664c0,0-13.827-3.717-18.795,13
								c-4.435,14.92,12.86,25.493,12.86,25.493s73.983,52.232,84.924,47.591
								C1108.788,1481.064,1124.197,1418.898,1132.187,1405.365z"/>
						</g>
					</g>
				</g>
				<g>
					<g>
						<g>
							<g>
								<path style="fill:#F37A50;" d="M1147.633,1404.133c-6.037,0.368-13.502-2.615-15.829,2.797l-11.915-5.808l-0.721-7.186
									c10.238-16.404,35.194-21.061,37.666-21.277c6.419-0.564,9.4-1.226,9.901-0.367c0.501,0.857,2.074,6.573-7.241,7.692
									c-11.689,1.403-3.929,10.749,19.787,1.853c5.938-2.227,17.113,0.664,13.071,5.004
									C1187.898,1391.621,1175.103,1402.459,1147.633,1404.133z"/>
							</g>
						</g>
					</g>
				</g>
			</g>
			<g>
				<path style="fill:#0E6A41;" d="M985.528,1342.335c-1.207,10.327,3.509,19.362,10.534,20.185
					c7.025,0.82,13.698-6.885,14.905-17.211c1.207-10.325-3.509-19.362-10.534-20.184
					C993.409,1324.305,986.735,1332.01,985.528,1342.335z"/>
				<path style="fill:#3F964F;" d="M991.045,1342.98c-1.207,10.326,3.509,19.362,10.534,20.184
					c7.025,0.821,13.698-6.885,14.905-17.209c1.207-10.327-3.509-19.363-10.534-20.184
					C998.926,1324.949,992.252,1332.654,991.045,1342.98z"/>
				<path style="fill:#3F964F;" d="M999.348,1328.639c0,0-9.45-54.252-59.117-34.648c3.088-8.315,53.19-26.301,67.655,32.869
					C1004.972,1330.407,999.348,1328.639,999.348,1328.639z"/>
			</g>
		</g>
	</g>
	<g id="с">
		<path id="с_8_" style="fill:#0E6A41;" d="M484.009,1790.438h0.599c4.852,0,8.786-3.934,8.786-8.785v-150.238h-18.171v150.238
			C475.223,1786.504,479.157,1790.438,484.009,1790.438z"/>
		<path id="с_7_" style="fill:#0E6A41;" d="M420.257,1790.438h0.6c4.852,0,8.786-3.934,8.786-8.785v-150.238h-18.171v150.238
			C411.471,1786.504,415.405,1790.438,420.257,1790.438z"/>
		<path id="с_1_" style="fill:#0E6A41;" d="M327.819,1781.941c0,4.693,4.068,8.496,9.086,8.496l0,0
			c5.018,0,9.085-3.803,9.085-8.496v-150.527h-18.171V1781.941z"/>
		<path id="с_5_" style="fill:#0E6A41;" d="M272.853,1790.438h0.6c4.852,0,8.786-3.934,8.786-8.785v-150.238h-18.171v150.238
			C264.067,1786.504,268.001,1790.438,272.853,1790.438z"/>
		<path id="с_4_" style="fill:#3F964F;" d="M373.677,1392.517v191.558c0,2.18,1.767,3.947,3.947,3.947h118.769
			c11.983,0,21.697,9.714,21.697,21.696l0,0c0,11.983-9.714,21.696-21.697,21.696H373.677H351.98
			c-11.983,0-21.697-9.713-21.697-21.696v-21.696v-195.505c0-11.983,9.713-21.696,21.697-21.696h0
			C363.963,1370.82,373.677,1380.534,373.677,1392.517z"/>
		
			<rect id="с_3_" x="258.077" y="1370.82" transform="matrix(-1 -1.224647e-16 1.224647e-16 -1 610.0572 2962.3594)" style="fill:#3F964F;" width="93.904" height="220.719"/>
		<path id="с_2_" style="fill:#0E6A41;" d="M279.774,1392.517v191.558c0,2.18,1.767,3.947,3.947,3.947H402.49
			c11.983,0,21.697,9.714,21.697,21.696l0,0c0,11.983-9.714,21.696-21.697,21.696H279.774h-21.697
			c-11.982,0-21.697-9.713-21.697-21.696v-21.696v-195.505c0-11.983,9.714-21.696,21.697-21.696l0,0
			C270.06,1370.82,279.774,1380.534,279.774,1392.517z"/>
	</g>
	<g id="c_8_">
		<path style="fill:#C4204A;" d="M427.924,1362.729c23.932,7.271,35.843,57.653,46.034,110.392
			c13.767,18.07,28.532,27.996,50.111,49.304c-14.622,3.312-30.097-0.567-30.097-0.567s-39.756,0.34-57.004-37.25
			c-3.947-8.602-5.292-25.911-7.529-33.604C428.456,1426.887,427.924,1362.729,427.924,1362.729z"/>
		<path style="fill:#F37A50;" d="M567.923,1764.459l21.555,5.461l8.805-19.201c-0.916-0.676-2.329-13.439-3.194-23.154
			l-34.793,4.799C562.002,1742.166,564.877,1754.985,567.923,1764.459z"/>
		<g>
			<g>
				<path style="fill:#201D40;" d="M605.962,1775.777c0,0,7.454-12.532,16.899-13.32c0,0,17.823,1.021,24.075,8.516
					c1.964,2.354,1.21,7.378,0.433,10.595c-0.485,2.009-2.188,4.189-7.455,5.845c-7.781,2.448-18.275,3.947-37.608-1.064
					c-23.193-6.012-26.895-3.535-35.466-6.297c-8.884-2.863-6.029-13.721-3.605-24.297
					C563.234,1755.754,569.7,1768.696,605.962,1775.777z"/>
			</g>
			<g>
				<g>
					<path style="fill:#2C2858;" d="M598.866,1748.842c0,0,10.351,6.27,23.887,9.377c7.572,1.738,27.757,5.654,24.507,19.111
						c-0.485,2.008-2.187,4.188-7.455,5.846c-7.781,2.447-18.275,3.947-37.608-1.064c-23.192-6.013-26.894-3.537-35.465-6.299
						c-8.884-2.862-4.784-15.188-2.361-25.763l0,0c0.219,2.684,1.462,9.728,17.576,16.038
						C586.757,1767.971,582.826,1746.758,598.866,1748.842z"/>
				</g>
			</g>
			<g>
				<path style="fill:#494C7F;" d="M595.854,1765.055c0.772-0.051,1.457-0.593,1.654-1.385c1.637-6.582,8.439-7.047,8.727-7.066
					c1.006-0.059,1.78-0.92,1.727-1.926c-0.054-1.006-0.907-1.781-1.914-1.731c-3.38,0.16-10.252,2.436-12.094,9.84
					c-0.244,0.98,0.353,1.974,1.334,2.218C595.479,1765.052,595.668,1765.067,595.854,1765.055z"/>
			</g>
			<g>
				<path style="fill:#494C7F;" d="M604.354,1768.463c0.772-0.053,1.457-0.594,1.654-1.387c1.637-6.582,8.44-7.047,8.728-7.066
					c1.005-0.057,1.78-0.918,1.727-1.925c-0.054-1.007-0.908-1.78-1.914-1.731c-3.38,0.16-10.252,2.438-12.094,9.84
					c-0.244,0.98,0.353,1.974,1.335,2.219C603.979,1768.459,604.169,1768.475,604.354,1768.463z"/>
			</g>
		</g>
		<path style="fill:#F37A50;" d="M483.718,1772.578l21.118,6.965l10.133-18.535c-0.866-0.739-3.9-14.22-4.08-23.971l-32.521,2.988
			C479.381,1749.924,481.346,1762.914,483.718,1772.578z"/>
		<path style="fill:#201D40;" d="M448.667,1532.178c48.148,8.795,116.531,39.982,123.276,47.078
			c13.933,14.654,20.756,65.061,27.327,154.834l-42.138,2.814c-15.554-70.133-30.186-100.711-32.575-129.193
			c0,0-36.926,2.555-92.489-18.887c-27.39-10.568-55.933-22.902-47.718-47.646C390.895,1521.463,402.758,1523.793,448.667,1532.178z
			"/>
		<path style="fill:#2C2858;" d="M394.815,1536.372c40.003,4.133,93.359,49.906,100.104,57.001
			c13.933,14.654,15.688,64.702,22.258,154.477l-41.936,3.867c-6.79-46.511-26.636-99.799-26.578-133.948
			c0,0-37.538-8.138-95.643-21.205c-31.785-7.149-41.323-12.073-47.403-32.829c-2.068-7.062-4.871-23.423-1.7-27.073
			C317.955,1520.509,356.951,1532.46,394.815,1536.372z"/>
		<g>
			<g>
				<path style="fill:#201D40;" d="M520.867,1786.545c0,0,8.316-11.977,17.794-12.1c0,0,17.707,2.273,23.416,10.189
					c1.793,2.488,0.687,7.445-0.314,10.599c-0.625,1.97-2.477,4.024-7.848,5.306c-7.934,1.895-18.507,2.652-37.44-3.707
					c-22.712-7.629-26.579-5.42-34.935-8.777c-8.66-3.48-5.048-14.111-1.887-24.49
					C479.654,1763.564,485.192,1776.93,520.867,1786.545z"/>
			</g>
			<g>
				<g>
					<path style="fill:#2C2858;" d="M515.684,1759.176c0,0,9.884,6.983,23.168,11.035c7.431,2.266,27.29,7.592,23.101,20.788
						c-0.625,1.969-2.476,4.022-7.848,5.306c-7.934,1.895-18.507,2.652-37.439-3.707c-22.712-7.629-26.579-5.42-34.935-8.777
						c-8.66-3.48-3.704-15.486-0.542-25.865l0,0c0.029,2.691,0.773,9.807,16.403,17.234
						C502.259,1777.406,499.83,1755.969,515.684,1759.176z"/>
				</g>
			</g>
			<g>
				<path style="fill:#494C7F;" d="M507.997,1775.84c0.773-0.051,1.457-0.594,1.654-1.385c1.637-6.583,8.44-7.047,8.728-7.066
					c1.006-0.059,1.78-0.92,1.727-1.926c-0.054-1.007-0.907-1.78-1.914-1.733c-3.38,0.16-10.253,2.438-12.094,9.842
					c-0.244,0.98,0.354,1.973,1.335,2.217C507.622,1775.836,507.813,1775.853,507.997,1775.84z"/>
			</g>
			<g>
				<path style="fill:#494C7F;" d="M516.497,1779.246c0.773-0.051,1.458-0.592,1.655-1.385c1.637-6.582,8.439-7.047,8.728-7.066
					c1.005-0.057,1.78-0.919,1.727-1.926c-0.054-1.006-0.907-1.78-1.914-1.731c-3.38,0.16-10.253,2.436-12.094,9.84
					c-0.244,0.98,0.354,1.974,1.335,2.218C516.122,1779.243,516.313,1779.26,516.497,1779.246z"/>
			</g>
		</g>
		<g>
			<polygon id="v-2_1_" style="fill:#DE623C;" points="368.401,1322.406 368.42,1322.406 384.38,1322.465 387.995,1360.162 
				369.363,1370 349.495,1360.273 352.707,1322.465 			"/>
			<g>
				<g>
					<path style="fill:#2C2858;" d="M366.313,1317.995c-13.76,4.848-25.196-11.55-25.196-11.55c-8.98,0.511-9.452-8.439-9.452-8.439
						c-4.391-0.339-10.852-3.522-10.847-11.757c0.004-6.971,6.583-8.118,5.68-16.079c-0.725-6.387-8.628-20.672,11.016-26.315
						c0,0-2.107-11.703,9.23-17.152c13.9-6.682,19.5,1.318,26.28,1.459c7.573,0.158,21.529-9.9,27.263,6.266
						c0,0,10.302-2.057,16.684,4.348c5.945,5.965,5.361,15.422,3.142,19.348c0,0,8.844,0.96,12.476,8.322
						c2.435,4.936,1.912,12.136-2.554,16.574c-2.841,2.824-5.939,3.72-5.939,3.72c-3.234,1.3-1.432,10.335-4,12.733
						c-4.122,3.851-8.837,6.973-13.73,9.703L366.313,1317.995z"/>
					<path style="fill:#F37A50;" d="M338.757,1297.492c2.631,26.308,24.769,47.692,45.431,45.625
						c20.662-2.066,32.025-26.8,29.394-53.107c-2.631-26.309-21.514-45.961-42.177-43.894
						C350.744,1248.182,336.126,1271.184,338.757,1297.492z"/>
					<path d="M402.872,1299.561c0.64,1.89,2.69,2.902,4.58,2.262c1.889-0.64,2.901-2.69,2.261-4.579
						c-0.64-1.888-2.69-2.901-4.579-2.261C403.244,1295.623,402.232,1297.673,402.872,1299.561z"/>
					<path d="M375.006,1300.113c0.693,2.045,2.912,3.141,4.957,2.447c2.045-0.693,3.141-2.912,2.448-4.957
						c-0.693-2.045-2.913-3.141-4.957-2.447C375.409,1295.849,374.313,1298.068,375.006,1300.113z"/>
					<path style="fill:#DE623C;" d="M391.511,1300.281c3.624,5.053,8.202,11.207,8.202,11.207s-1.573,5.672-8.888,6.217
						c3.018-1.479,5.949-3.76,4.422-7.81C393.72,1305.846,391.511,1300.281,391.511,1300.281z"/>
					<g>
						<path style="fill:#2C2858;" d="M370.145,1295.555c-0.133-0.039-0.264-0.094-0.39-0.164c-0.866-0.49-1.17-1.59-0.68-2.456
							c1.339-2.364,5.268-6.44,10.555-4.94c0.96,0.287,1.513,1.268,1.242,2.225c-0.272,0.957-1.268,1.514-2.225,1.242
							c-3.915-1.109-6.412,3.206-6.436,3.25C371.792,1295.45,370.927,1295.781,370.145,1295.555z"/>
					</g>
					<g>
						<path style="fill:#2C2858;" d="M402.612,1292.338c-0.248-0.072-0.48-0.209-0.671-0.408c-0.572-0.601-0.547-1.553,0.054-2.123
							c0.095-0.09,2.345-2.19,5.363-1.895c2.061,0.203,3.899,1.428,5.463,3.641c0.479,0.678,0.317,1.614-0.36,2.094
							c-0.678,0.479-1.615,0.317-2.093-0.359c-1.038-1.47-2.15-2.272-3.304-2.386c-1.64-0.161-2.988,1.069-3,1.083
							C403.664,1292.364,403.107,1292.48,402.612,1292.338z"/>
					</g>
					<path style="fill:#2C2858;" d="M418.393,1263.279l-46.193-26.183l-43.753,35.814l13.81,34.175
						c-2.32-16.673,8.881-13.571,13.027-19.495c4.204-6.007,4.841-14.096,18.682-10.084c0,0,8.543-9.104,15.82-0.479
						c5.628,6.671,10.728,4.047,16.209,3.267c6.464-0.918,6.295,5.595,10.139,4.548L418.393,1263.279z"/>
					<g>
						<path style="fill:#F37A50;" d="M344.454,1295.039c4.364,4.428,4.963,10.914,1.339,14.484c-3.624,3.57-10.1,2.875-14.464-1.553
							c-4.363-4.428-4.963-10.914-1.338-14.484C333.614,1289.914,340.09,1290.609,344.454,1295.039z"/>
						<g>
							<path style="fill:#DE623C;" d="M339.976,1307.577c0.194-0.066,0.375-0.179,0.528-0.333c2.197-2.238,2.742-5.008,1.458-7.408
								c-1.314-2.457-4.17-3.88-6.791-3.383c-0.738,0.141-1.222,0.851-1.082,1.59c0.14,0.736,0.851,1.221,1.589,1.082
								c1.436-0.274,3.143,0.604,3.887,1.994c0.715,1.336,0.359,2.834-1.001,4.221c-0.526,0.535-0.518,1.396,0.018,1.922
								C338.961,1307.635,339.505,1307.739,339.976,1307.577z"/>
						</g>
					</g>
					<path style="fill:#FFFFFF;" d="M400.018,1326.019c0.668-0.815,0.047-2.03-1.005-1.956c-2.674,0.189-7.09,0.41-11.286,0.209
						c-4.196-0.203-8.57-0.848-11.214-1.293c-1.04-0.174-1.774,0.975-1.188,1.851c1.804,2.693,5.6,6.835,12.031,7.145
						C393.787,1332.284,397.963,1328.527,400.018,1326.019z"/>
				</g>
			</g>
			<g>
				<path d="M353.947,1301.146c0,10.396-5.733,18.824-12.807,18.824c-7.072,0-12.806-8.428-12.806-18.824
					c0-10.396,5.734-18.824,12.806-18.824C348.214,1282.322,353.947,1290.75,353.947,1301.146z"/>
				<ellipse style="fill:#3F964F;" cx="335.586" cy="1301.146" rx="12.806" ry="18.824"/>
				<path style="fill:#3F964F;" d="M341.812,1285.938c0,0,6.5-46.355,69.383-24.566c-2.101-8.617-56.42-35.283-77.657,21.808
					C336.02,1287.041,341.812,1285.938,341.812,1285.938z"/>
			</g>
		</g>
		<g id="v_1_">
			<path id="v-25_3_" style="fill:#FFD0B7;" d="M334.885,1369.575c11.591-3.909,23.785-5.727,36.013-5.368
				c41.413,0,47.754,10.463,47.754,10.221l-30.734,84.394l-17.02,8.401l-18.629-5.52
				C352.269,1461.703,328.119,1372.092,334.885,1369.575z"/>
			<path style="fill:#E62552;" d="M303.927,1537.389c0,0,33.4,3.446,64.7,3.654c31.3-0.23,64.7-6.303,64.7-6.303
				s-4.206-57.481-3.778-79.557c0.609-25.346-1.625-58.957-1.625-92.454c0,0-22.201-3.574-34.725-5.118
				c-2.036-0.252-3.814-0.447-5.205-0.568c0,0-7.135,14.971-38.227,0c-1.634-0.163-3.656-0.154-5.917-0.023
				c-13.061,0.781-34.098,5.71-34.098,5.71c0,33.407-1.35,66.146-0.898,91.497C307.466,1476.84,303.927,1537.389,303.927,1537.389z"
				/>
		</g>
		<g id="c_1_">
			<path style="fill:#F37A50;" d="M386.273,1435.142l7.578-4.391c0,0,2.098-10.748,14.267-11.006
				c3.345,3.791-6.807,6.926-3.401,11.006c0,0,2.865,4.876,18.839-1.244c6.271-2.539,11.767-2.084,14.78,5.076
				c2.667,6.336-5.393,18.112-19.259,20.154c-17.941,2.643-30.646-0.586-30.646-0.586L386.273,1435.142z"/>
			<path id="c_2_" style="fill:#C4204A;" d="M316.153,1446.625c25.327-1.77,68.533-14.279,68.533-14.279
				c6.914,10.605,5.001,24.691,5.001,24.691c-39.332,34.484-98.528,45.631-116.69,37.331
				c-16.582-7.577-4.876-108.517,36.757-131.639l1.443,0.136C325.47,1387.016,316.153,1446.625,316.153,1446.625z"/>
		</g>
		<path style="fill:#C4204A;" d="M343.852,1357.02v0.006c2.162,3.609,5.223,6.341,9.538,8.512c6.833,3.448,16.12,4.91,21.838,4.463
			c4.527-0.355,9.549-2.203,12.767-4.753c3.417-2.713,4.903-6.169,5.206-7.636c-2.036-0.252-4.126-0.568-5.517-0.69
			c0,0-6.823,15.092-37.915,0.121C348.135,1356.88,346.113,1356.889,343.852,1357.02z"/>
	</g>
	<g>
		<path style="fill:#FFFFFF;" d="M221.28,1540.949h828.053c6.421,0,11.626-5.205,11.626-11.626l0,0
			c0-6.421-5.205-11.626-11.626-11.626H221.28c-6.421,0-11.627,5.205-11.627,11.626l0,0
			C209.654,1535.744,214.859,1540.949,221.28,1540.949z"/>
	</g>
	<g>
		<path style="fill:#0E6A41;" d="M446.33,1518h133.878l26.426-84.024c1.221-3.881-1.678-7.83-5.746-7.83h-121.25
			c-2.631,0-4.957,1.707-5.746,4.217L446.33,1518z"/>
		<path style="fill:#3F964F;" d="M456.485,1518h133.878l26.426-84.024c1.221-3.881-1.677-7.83-5.745-7.83h-121.25
			c-2.631,0-4.956,1.707-5.746,4.217L456.485,1518z"/>
		<path style="fill:#55AB65;" d="M535.302,1473.729c-1.475,5.191,1.15,10.483,5.864,11.822c4.713,1.34,9.729-1.782,11.204-6.973
			c1.475-5.19-1.15-10.483-5.864-11.822C541.793,1465.417,536.777,1468.539,535.302,1473.729z"/>
		<path style="fill:#0E6A41;" d="M370.271,1509.226h86.214v8.565h-94.776l0,0C361.708,1513.061,365.542,1509.226,370.271,1509.226z"
			/>
	</g>
	<g>
		<path style="fill:#FFFFFF;" d="M689.675,1136.46h121.15c9.557,0,17.304-7.747,17.304-17.304v-51.697
			c0-9.558-7.747-17.305-17.304-17.305h-121.15c-9.557,0-17.304,7.747-17.304,17.305v51.697
			C672.371,1128.713,680.118,1136.46,689.675,1136.46z"/>
		<path style="fill:#FFFFFF;" d="M890.27,1285.934H732.991c-12.407,0-22.464-10.057-22.464-22.464v-67.115
			c0-12.407,10.058-22.465,22.464-22.465H890.27c12.406,0,22.464,10.058,22.464,22.465v67.115
			C912.734,1275.877,902.676,1285.934,890.27,1285.934z"/>
		<polygon style="fill:#FFFFFF;" points="782.058,1136.46 782.058,1181.328 810.002,1136.46 		"/>
		<path style="fill:#FFFFFF;" d="M884.099,1280.914v41.711c0,3.35-4.505,4.428-6.022,1.442l-21.922-43.153H884.099z"/>
		<path style="fill:#E3EAFF;" d="M697.593,1085.183h105.314c5.102,0,9.238-4.136,9.238-9.238l0,0c0-5.103-4.136-9.237-9.238-9.237
			H697.593c-5.102,0-9.238,4.135-9.238,9.237l0,0C688.354,1081.047,692.491,1085.183,697.593,1085.183z"/>
		<path style="fill:#E3EAFF;" d="M697.593,1115.017h105.314c5.102,0,9.238-4.136,9.238-9.238l0,0c0-5.103-4.136-9.237-9.238-9.237
			H697.593c-5.102,0-9.238,4.135-9.238,9.237l0,0C688.354,1110.881,692.491,1115.017,697.593,1115.017z"/>
		<path style="fill:#E3EAFF;" d="M886.367,1208.908H738.787c-5.675,0-10.276-4.602-10.276-10.277l0,0
			c0-5.675,4.601-10.276,10.276-10.276h147.58c5.676,0,10.277,4.601,10.277,10.276l0,0
			C896.643,1204.307,892.042,1208.908,886.367,1208.908z"/>
		<path style="fill:#E3EAFF;" d="M886.367,1241.508H738.787c-5.675,0-10.276-4.602-10.276-10.277l0,0
			c0-5.676,4.601-10.277,10.276-10.277h147.58c5.676,0,10.277,4.601,10.277,10.277l0,0
			C896.643,1236.906,892.042,1241.508,886.367,1241.508z"/>
		<path style="fill:#E3EAFF;" d="M887.876,1274.105h-94.707c-4.843,0-8.768-3.926-8.768-8.767v-3.018
			c0-4.842,3.925-8.768,8.768-8.768h94.707c4.842,0,8.768,3.926,8.768,8.768v3.018
			C896.643,1270.18,892.718,1274.105,887.876,1274.105z"/>
	</g>
	<g>
		<path style="fill:#FFFFFF;" d="M425.962,1184.434h123.194c9.718,0,17.596-7.877,17.596-17.594v-52.572
			c0-9.717-7.878-17.595-17.596-17.595H425.962c-9.718,0-17.596,7.878-17.596,17.595v52.572
			C408.367,1176.557,416.245,1184.434,425.962,1184.434z"/>
		<path style="fill:#FFFFFF;" d="M430.796,1180.504v32.67c0,2.623,3.529,3.469,4.717,1.131l17.171-33.801H430.796z"/>
		<path style="fill:#E3EAFF;" d="M429.02,1124.101h115.597c4.446,0,8.049-3.604,8.049-8.05l0,0c0-4.446-3.604-8.05-8.049-8.05
			H429.02c-4.446,0-8.05,3.603-8.05,8.05l0,0C420.97,1120.497,424.574,1124.101,429.02,1124.101z"/>
		<path style="fill:#E3EAFF;" d="M429.02,1149.635h115.597c4.446,0,8.049-3.603,8.049-8.049l0,0c0-4.445-3.604-8.049-8.049-8.049
			H429.02c-4.446,0-8.05,3.604-8.05,8.049l0,0C420.97,1146.031,424.574,1149.635,429.02,1149.635z"/>
		<path style="fill:#E3EAFF;" d="M427.837,1175.17h74.182c3.793,0,6.868-3.074,6.868-6.868v-2.364c0-3.792-3.075-6.867-6.868-6.867
			h-74.182c-3.793,0-6.868,3.075-6.868,6.867v2.364C420.97,1172.096,424.045,1175.17,427.837,1175.17z"/>
	</g>
</g>
<g>
	<g>
		<g>
			<g>
				<g>
					<g>
						<g>
							<g>
								<path style="fill:#F37A50;" d="M1674.604,341.253c-3.09,3.471-8.782,8.634-12.486,12.49l-11.029-3.096
									c-3.309-14.484,3.529-29.406,4.131-31.215c1.563-4.698,2.006-7.002,2.764-7.094c0.758-0.091,5.269,0.545,3.214,7.454
									c-2.579,8.672,7.014,9.375,15.116-8.32c2.029-4.431,8.037-4.257,8.186,0.297
									C1684.662,316.788,1688.664,325.458,1674.604,341.253z"/>
							</g>
						</g>
					</g>
				</g>
			</g>
			<path style="fill:#F37A50;" d="M1588.734,398.224c-2.797,7.008,11.567,24.772,14.178,24.379
				c29.154-15.26,59.205-68.86,59.205-68.86l-5.095-11.192C1657.022,342.551,1623.475,375.066,1588.734,398.224z"/>
		</g>
		<path style="fill:#F37A50;" d="M1536.934,350.842c10.555,19.329,58.73,70.542,66.607,71.724l8.355-26.927
			c0,0-42.37-60.77-49.893-70.514C1549.02,308.221,1519.64,319.317,1536.934,350.842z"/>
		<g>
			<path style="fill:#201D40;" d="M1685.969,310.414l-24.346,36.27c-0.976,1.452-2.945,1.839-4.398,0.864l-4.902-3.292
				c-1.453-0.976-1.84-2.945-0.865-4.398l24.347-36.268c0.976-1.454,2.944-1.841,4.397-0.865l4.902,3.291
				C1686.557,306.992,1686.944,308.961,1685.969,310.414z"/>
			<path style="fill:#95A6DB;" d="M1683.805,308.938l-24.346,36.269c-0.976,1.454-2.945,1.841-4.398,0.865l-4.902-3.291
				c-1.453-0.976-1.84-2.945-0.865-4.397l24.347-36.269c0.976-1.453,2.944-1.84,4.397-0.865l4.902,3.291
				C1684.393,305.517,1684.78,307.486,1683.805,308.938z"/>
		</g>
		<path style="fill:#F37A50;" d="M1673.744,329.039c0.621-2.689,0.021-13.933,3.433-13.83c0.827,0.311,1.108,1.965,1.108,1.965
			c0.518-1.654,1.644-8.95,4.332-7.606c2.275,2.069,1.881,3.65,1.881,3.65L1673.744,329.039z"/>
	</g>
	<path style="fill:#16142B;" d="M1544.537,201.455c-12.863-22.513-61.566-16.281-64.908,11.09
		c-3.342,27.372-0.404,45.246-34.328,43.3c-27.016-1.55-52.965,24.335-50.436,62.146c3.236,48.374,35.5,27.308,29.326,51.722
		c-6.175,24.414-9.561,48.984,25.071,47.462c34.632-1.522,64.274-32.404,57.603-71.457c-6.674-39.054,24.146-35.488,30.176-55.424
		C1545.613,261.944,1544.537,201.455,1544.537,201.455z"/>
	<path style="fill:#DE623C;" d="M1542.004,282.374c0,0,4.061,31.523,5.145,39.71l-30.493-1.685
		c5.759-15.884-7.324-54.394-7.324-54.394L1542.004,282.374z"/>
	<g>
		<g>
			<path style="fill:#F37A50;" d="M1509.234,254.719c-1.208,26.767,14.855,49.236,35.878,50.186
				c21.022,0.949,39.046-19.981,40.254-46.748s-14.854-49.236-35.878-50.185C1528.466,207.022,1510.443,227.952,1509.234,254.719z"
				/>
			<path d="M1572.522,266.574c0.365,1.988,2.273,3.302,4.261,2.936c1.988-0.366,3.303-2.273,2.938-4.261
				c-0.365-1.989-2.273-3.304-4.262-2.938C1573.471,262.678,1572.156,264.585,1572.522,266.574z"/>
			<path d="M1545.725,260.429c0.396,2.152,2.462,3.575,4.613,3.179c2.152-0.396,3.576-2.462,3.18-4.613
				c-0.396-2.152-2.461-3.576-4.613-3.18C1546.752,256.211,1545.328,258.277,1545.725,260.429z"/>
			<g>
				<path style="fill:#2C2858;" d="M1542.467,256.642c0.297-0.055,0.578-0.207,0.791-0.453c3.093-3.567,8.479-2.887,8.533-2.879
					c0.752,0.102,1.447-0.424,1.551-1.177c0.104-0.752-0.419-1.446-1.171-1.552c-0.28-0.039-6.909-0.912-10.995,3.804
					c-0.498,0.574-0.436,1.445,0.139,1.943C1541.645,256.613,1542.07,256.714,1542.467,256.642z"/>
			</g>
			<g>
				<path style="fill:#2C2858;" d="M1583.162,262.765c0.146-0.027,0.289-0.078,0.426-0.154c0.663-0.372,0.899-1.212,0.527-1.875
					c-2.891-5.153-8.345-4.93-8.576-4.918c-0.758,0.04-1.344,0.687-1.304,1.447c0.04,0.757,0.684,1.34,1.44,1.305
					c0.18-0.007,4.003-0.111,6.036,3.513C1582.008,262.61,1582.6,262.868,1583.162,262.765z"/>
			</g>
			<path style="fill:#DE623C;" d="M1565.926,268.301c1.358,2.541,2.463,5.074,3.971,6.764c0.509,0.57,0.47,1.454-0.074,1.989
				c-2.248,2.211-7.219,3.134-10.209,3.5c-0.437,0.053-0.609-0.547-0.211-0.735c3.367-1.585,5.023-2.989,5.782-3.802
				c0.378-0.405,0.531-0.963,0.428-1.508c-0.237-1.247-0.696-3.785-0.91-5.839C1564.629,267.961,1565.59,267.673,1565.926,268.301z"
				/>
			<path style="fill:#FFFFFF;" d="M1544.674,283.001c0.175-1.002,0.701-1.832,1.613-1.382c2.322,1.147,6.191,2.96,10.017,4.313
				c3.825,1.353,7.974,2.376,10.499,2.944c0.994,0.224,0.906,1.214,0.387,2.09c-2.154,3.626-8.084,6.456-13.949,4.382
				C1547.377,293.274,1544.021,286.737,1544.674,283.001z"/>
		</g>
		<path style="fill:#201D40;" d="M1509.42,256.149c15.486,2.294,28.529-7.883,39.613-15.188
			c12.148-0.803,26.744-10.714,29.016-14.91c-0.299-16.051-9.83-30.887-42.063-24.825
			C1520.366,204.164,1491.961,230.833,1509.42,256.149z"/>
		<path style="fill:#201D40;" d="M1540.537,237.551c0,0,31.443,6.73,44.829,20.606c15.864-12.104,5.253-27.493-7.966-36.384
			C1565.953,222.652,1540.537,237.551,1540.537,237.551z"/>
		<g>
			<path style="fill:#F37A50;" d="M1518.653,257.602c3.71,5.094,3.338,11.683-0.831,14.718c-4.168,3.036-10.553,1.368-14.263-3.725
				c-3.71-5.094-3.337-11.683,0.83-14.719C1508.558,250.841,1514.943,252.509,1518.653,257.602z"/>
			<g>
				<path style="fill:#DE623C;" d="M1512.285,269.497c0.203-0.038,0.402-0.122,0.578-0.255c2.538-1.913,3.5-4.607,2.573-7.206
					c-0.948-2.661-3.598-4.515-6.3-4.41c-0.76,0.031-1.352,0.67-1.322,1.431c0.029,0.761,0.67,1.354,1.43,1.323
					c1.48-0.058,3.061,1.077,3.598,2.582c0.516,1.446-0.066,2.895-1.637,4.08c-0.607,0.459-0.729,1.323-0.271,1.93
					C1511.26,269.402,1511.787,269.589,1512.285,269.497z"/>
			</g>
		</g>
	</g>
	<path style="fill:#F37A50;" d="M1737.781,596.164l10.852,15.178c0,0,9.691,12.352,21.245,6.552
		c11.553-5.799,6.432-24.356,6.432-24.356l-13.274-17.476L1737.781,596.164z"/>
	<g>
		<g>
			<g>
				<path style="fill:#2C2858;" d="M1775.857,591.529c0,0,11.666-0.11,24.34-4.428c7.09-2.416,25.625-9.444,29.787,3.238
					c0.621,1.893,0.33,4.543-3.148,8.574c-5.137,5.954-12.98,12.506-31.373,18.205c-22.064,6.834-23.844,10.741-32.271,12.826
					c-8.735,2.159-11.626-10.025-15.004-19.926l0,0c1.541,2.089,6.133,7.234,22.545,4.234
					C1775.633,613.355,1761.648,597.956,1775.857,591.529z"/>
			</g>
		</g>
	</g>
	<path style="fill:#F37A50;" d="M1645.881,648.345v10.294c0,0,0.701,15.686,13.473,17.687c12.771,2.001,19.396-16.073,19.396-16.073
		l-0.469-16.213L1645.881,648.345z"/>
	<path style="fill:#0C5937;" d="M1553.594,500.189l123.943-5.294c0,0,6.115-30.935,1.516-43.199
		c-4.6-12.264-118.477-9.736-118.477-9.736L1553.594,500.189z"/>
	<path style="fill:#0E6A41;" d="M1517.142,420.762c-3.358,7.762-16.448,30.862-15.184,49.589
		c1.304,19.328,14.942,36.155,38.021,35.789c0,0,43.501-24.728,34.085-75.38C1574.064,430.759,1551.291,421.864,1517.142,420.762z"
		/>
	<path style="fill:#0E6A41;" d="M1536.541,510.551l109.177,10.298c0,0,37.451-15.803,37.237-29.226
		c-0.213-13.421-110.219-50.148-110.219-50.148C1508.219,422.66,1486.711,502.738,1536.541,510.551z"/>
	<path style="fill:#0E6A41;" d="M1682.955,491.624l-2.188,153.999c0,0-27.254,11.486-36.806,0.088
		c-4.508-52.268-25.97-98.57-2.009-130.433C1674.044,472.603,1682.955,491.624,1682.955,491.624z"/>
	<path style="fill:#0C5937;" d="M1678.79,451.334l90.854,124.77c0,0-20.278,27.102-34.437,23.929
		c-24.43-30.911-73.861-67.158-74.178-106.058C1660.607,441.874,1678.79,451.334,1678.79,451.334z"/>
	<path style="fill:#E62552;" d="M1516.96,307.771c0,0,25.765,17.261,28.741,5.053c6.976,4.836,31.348,20.44,34.168,35.663
		c2.738,14.792-5.699,82.934-5.699,82.934c-25.672,9.566-48.003,11.169-66.786,4.314c4.477-39.037-33.374-78.223-15.317-108.014
		C1496.572,320.288,1514.396,316.343,1516.96,307.771z"/>
	<g>
		<g>
			<g>
				<path style="fill:#2C2858;" d="M1679.551,658.355c0,0,9.555,6.696,22.376,10.555c7.173,2.158,26.338,7.221,22.348,19.958
					c-0.595,1.901-2.372,3.888-7.546,5.144c-7.643,1.854-17.834,2.624-36.109-3.439c-21.924-7.272-25.645-5.129-33.712-8.334
					c-8.362-3.325-3.628-14.917-0.616-24.935l0,0c0.037,2.596,0.781,9.452,15.877,16.556
					C1666.674,675.98,1664.255,655.321,1679.551,658.355z"/>
			</g>
		</g>
	</g>
	<g>
		<path style="fill:#F37A50;" d="M1460.359,435.294c5.725-3.73,22.617,11.556,22.732,13.942
			c-12.895,28.233-48.463,60.022-48.463,60.022l-8.734-8.903C1425.895,500.354,1445.987,470.258,1460.359,435.294z"/>
		<path style="fill:#F37A50;" d="M1517.27,358.88c-2.803,21.012-27.953,85.466-34.178,90.356l-22.732-13.942
			c0,0,22.11-79.501,25.5-90.854C1491.684,324.766,1521.912,324.582,1517.27,358.88z"/>
		<g>
			<g>
				<g>
					<g>
						<g>
							<path style="fill:#F37A50;" d="M1413.007,504.531c4.628-0.997,10.308-0.299,12.888-4.177l9.55,8.115
								c-5.991,13.901-23.964,21.044-25.851,21.503c-4.9,1.193-7.13,2.056-7.619,1.451c-0.488-0.605-2.379-4.843,4.697-6.806
								c8.881-2.464,1.775-8.781-15.529,0.897c-4.334,2.422-13.322,1.502-10.705-2.332
								C1383.32,518.958,1391.945,509.064,1413.007,504.531z"/>
						</g>
					</g>
				</g>
			</g>
		</g>
	</g>
	<g>
		<path d="M1521.732,260.45c0,10.109-5.574,18.305-12.452,18.305s-12.452-8.195-12.452-18.305c0-10.109,5.574-18.304,12.452-18.304
			S1521.732,250.341,1521.732,260.45z"/>
		<path style="fill:#3F964F;" d="M1516.332,260.45c0,10.109-5.576,18.305-12.453,18.305s-12.453-8.195-12.453-18.305
			c0-10.109,5.576-18.304,12.453-18.304S1516.332,250.341,1516.332,260.45z"/>
		<path style="fill:#3F964F;" d="M1509.933,245.662c0,0,6.32-45.077,67.468-23.889c-2.043-8.379-54.863-34.309-75.514,21.207
			C1504.301,246.734,1509.933,245.662,1509.933,245.662z"/>
	</g>
</g>
<g>
	<polygon style="fill:#0E6A41;" points="1718.174,1527.711 1685.462,1561.135 1721.467,1544.949 	"/>
	<path style="fill:#201D40;" d="M1761.65,1686.021c-13.339-2.158-34.623,3.708-46.523-2.691
		c-23.121,11.672-52.294,27.434-52.294,27.434c14.452,15.592,60.466,42.367,60.466,42.367
		c24.408-11.552,48.563-23.824,75.344-27.264c-2.576-13.374-7.471-26.355-13.895-38.365
		C1777.025,1687.758,1769.278,1687.254,1761.65,1686.021z"/>
	<path style="fill:#3F964F;" d="M1744.49,1511.017c-11.66,5.67-15.972,9.096-26.316,16.693c1.203,18.955-2.176,41.967,3.426,60.116
		c9.143,29.632,2.178,74.474-16.047,99.565c13.982,43.578,81.516,41.508,110.936,36.731c14.685-32.108,14.379-71.572,25.42-128.856
		l-3.848-72.963c-17.052-11.898-43.246-15.531-43.246-15.531S1758.899,1504.01,1744.49,1511.017z"/>
	<path style="fill:#F37A50;" d="M1640.727,1730.813c21.457,16.872,46.383,32.771,70.755,45.064
		c10.634-8.705,11.849-11.742,14.698-25.186c-18.402-16.598-37.313-31.156-56.342-47.029
		C1658.552,1713.637,1640.727,1730.813,1640.727,1730.813z"/>
	<path style="fill:#F37A50;" d="M1634.171,1774.889c2.307,9.992,5.218,19.538,8.275,29.327c23.173-3.257,46.599-8.636,68.279-17.442
		c-1.655-14.092-2.925-28.209-4.579-42.303C1684.465,1759.209,1659.85,1769.61,1634.171,1774.889z"/>
	<path style="fill:#201D40;" d="M1807.359,1690.691l-102.437,58.338l12.923,28.729c13.82,6.947,61.191,13.706,84.223,0.566
		C1828.585,1763.195,1825.248,1698.221,1807.359,1690.691z"/>
	<g>
		<g>
			<g>
				<g>
					<path style="fill:#FFFFFF;" d="M1758.379,1801.842l17.88-34.896c0,0-10.823,0.171-16.877,11.987
						C1755.308,1786.883,1756.099,1796.77,1758.379,1801.842z"/>
				</g>
			</g>
		</g>
		<path style="fill:#E62552;" d="M1726.109,1765.092c-2.879,5.592-1.031,15.771-0.197,16.277c3.388,2.058,9.607,6.826,12.291,8.741
			c2.361,1.685,15.49,13.792,15.49,13.792l6.859,1.318l12.249-22.479l3.428-18.461c0,0-8.649-0.738-14.005-2.122
			c-7.2-1.862-15.01-5.829-22.1-8.333C1739.02,1753.436,1730.006,1757.526,1726.109,1765.092z"/>
		<g>
			<g>
				<g>
					<path style="fill:#FFFFFF;" d="M1764.408,1781.368c-4.588,8.943-5.895,23.749-10.715,22.534c0,0,4.521,9.147,13.285,9.456
						c3.75-3.237,9.484-12.126,14.846-21.229s8.49-21.051,8.49-21.051s-8.596-6.355-14.085-6.797
						C1777.211,1766.178,1768.259,1773.859,1764.408,1781.368z"/>
				</g>
			</g>
		</g>
	</g>
	<g>
		<path style="fill:#2C2858;" d="M1807.359,1690.693c-21.684-13.726-59.422,33.87-145.517,72.089
			c5.653,10.517,11.606,26.062,16.589,37.44c0,0,72.886-14.412,115.134-44.186c23.95,4.525,26.923-12.742,27.091-13.861
			C1823.434,1719.719,1817.064,1696.835,1807.359,1690.693z"/>
	</g>
	<path style="fill:#2C2858;" d="M1600.195,1711.994c11.777,15.923,77.368,47.549,77.368,47.549l23.679-34.516
		c-10.868-8.142-67.071-51.242-85.211-51.236C1605.723,1676.141,1584.922,1691.345,1600.195,1711.994z"/>
	<g>
		<g>
			<g>
				<g>
					<path style="fill:#FFFFFF;" d="M1602.762,1780.02l13.273,41.163c0,0,8.309-8.575,3.814-22.513
						C1616.825,1789.291,1608.498,1782.196,1602.762,1780.02z"/>
				</g>
			</g>
		</g>
		<path style="fill:#E62552;" d="M1656.596,1783.514c-2.117-6.607-11.498-13.105-12.541-12.85
			c-4.248,1.037-12.818,2.168-16.405,2.768c-3.155,0.529-22.841,1.326-22.841,1.326l-6.377,4.32l7.979,27.088l11.726,17.072
			c0,0,7.321-6.172,12.578-9.269c7.067-4.164,16.253-7.16,23.735-10.736C1655.617,1802.674,1659.457,1792.453,1656.596,1783.514z"/>
		<g>
			<g>
				<g>
					<path style="fill:#FFFFFF;" d="M1614.029,1800.689c-3.397-10.553-13.926-23.119-9.22-25.932c0,0-10.66-3.609-17.737,2.986
						c-0.4,5.449,2.061,16.854,4.979,28.137c2.919,11.282,9.797,23.041,9.797,23.041s11.661-1.748,16.287-5.684
						C1615.892,1822.523,1616.883,1809.55,1614.029,1800.689z"/>
				</g>
			</g>
		</g>
	</g>
	<path style="fill:#FFFFFF;" d="M1779.539,1451.057c-1.943,0.072-3.863,0.42-5.708,1.035c-0.506,0.168-0.78,0.713-0.611,1.219
		c0.136,0.405,0.512,0.662,0.915,0.662c0.102,0,0.205-0.018,0.306-0.051c1.671-0.556,3.41-0.871,5.169-0.935
		c0.533-0.02,0.949-0.468,0.928-1.001C1780.519,1451.453,1780.063,1451.031,1779.539,1451.057z"/>
	<g>
		<path style="fill:#FFFFFF;" d="M1759.211,1659.492c-0.169,0-0.336-0.004-0.506-0.012c-5.896-0.275-12.385-5.65-17.799-14.746
			l1.719-1.023c5.064,8.51,10.959,13.528,16.174,13.771c3.51,0.164,6.804-1.827,9.785-5.916c8.941-12.262-0.607-59.782-10.41-74.066
			c-9.846-14.346,0.709-30.236,0.816-30.395l1.656,1.121c-0.1,0.149-9.889,14.933-0.824,28.142
			c9.295,13.544,20.475,62.53,10.377,76.376C1766.934,1657.225,1763.238,1659.492,1759.211,1659.492z"/>
	</g>
	<g>
		<path id="v-2_3_" style="fill:#F37A50;" d="M1776.61,1476.612h-0.02l-16.03,0.059l-3.63,37.861c0,0,5.554,10.371,18.713,9.881
			c13.159-0.49,19.954-9.769,19.954-9.769l-2.487-38.311L1776.61,1476.612z"/>
		<g>
			<path style="fill:#F37A50;" d="M1805.617,1453.486c-2.457,26.441-21.283,46.31-42.049,44.382
				c-20.768-1.931-35.609-24.929-33.152-51.369s21.283-46.312,42.049-44.381C1793.231,1404.047,1808.074,1427.047,1805.617,1453.486
				z"/>
			<path d="M1740.787,1451.865c-0.63,1.902-2.682,2.933-4.584,2.303c-1.9-0.629-2.932-2.682-2.303-4.583
				c0.63-1.901,2.682-2.933,4.584-2.303C1740.385,1447.912,1741.416,1449.964,1740.787,1451.865z"/>
			<path d="M1769.984,1454.78c-0.682,2.06-2.903,3.175-4.962,2.493c-2.059-0.682-3.175-2.902-2.493-4.961s2.902-3.176,4.961-2.494
				S1770.666,1452.722,1769.984,1454.78z"/>
			<path style="fill:#DE623C;" d="M1747.713,1455.85c-3.604,5.1-8.158,11.313-8.158,11.313s1.619,5.686,8.971,6.181
				c-3.041-1.464-6.002-3.733-4.498-7.813C1745.533,1461.453,1747.713,1455.85,1747.713,1455.85z"/>
			<g>
				<path style="fill:#201D40;" d="M1776.166,1450.485c0.134-0.04,0.265-0.095,0.391-0.168c0.866-0.497,1.164-1.605,0.666-2.472
					c-1.361-2.365-5.336-6.43-10.636-4.887c-0.963,0.295-1.511,1.283-1.231,2.242c0.279,0.96,1.283,1.512,2.243,1.233
					c3.924-1.143,6.462,3.174,6.487,3.219C1774.512,1450.392,1775.382,1450.718,1776.166,1450.485z"/>
			</g>
			<g>
				<path style="fill:#201D40;" d="M1742.25,1443.43c0.248-0.072,0.48-0.211,0.671-0.414c0.569-0.608,0.538-1.563-0.07-2.132
					c-0.095-0.09-2.37-2.184-5.399-1.864c-2.068,0.219-3.906,1.461-5.461,3.695c-0.476,0.684-0.307,1.623,0.377,2.1
					c0.684,0.474,1.623,0.307,2.1-0.377c1.031-1.483,2.143-2.297,3.301-2.418c1.646-0.174,3.008,1.053,3.021,1.066
					C1741.193,1443.465,1741.754,1443.577,1742.25,1443.43z"/>
			</g>
			<path style="fill:#201D40;" d="M1813.306,1432.005c1.253-25.149-22.116-32.471-22.116-32.471s5.09-2.018,3.539-9.546
				c-3.553,2.381-7.966,3.592-12.234,3.339c-28.766-1.709-46.615,3.714-43.322,14.831c1.172,3.957-17.273,6.412-7.951,32.601
				c0.612-1.904,2.718-14.691,8.188-17.5c5.489-2.816,2.533,6.484,15.132,4.561c12.713-1.941,20.816-7.566,30.319-2.891
				c7.618,4.278,20.423,38.16,18.738,39.465C1808.828,1460.342,1812.755,1443.057,1813.306,1432.005z"/>
			<path style="fill:#201D40;" d="M1730.779,1460.867c0,0,3.004,14.197,6.275,17.894c0.434-6.181,6.648-1.606,11.01-2.296
				c10.541-1.663,27.837-10.466,34.157,4.211c13.558,0.25,19.908-28.492,19.908-28.492c9.493,29.43-6.608,48.246-39.366,51.887
				C1739.328,1506.674,1727.725,1482.732,1730.779,1460.867z"/>
			<g>
				<path style="fill:#DE623C;" d="M1760.578,1482.953c1.863-1.072,3.711-2.511,5.533-4.311c0.475-0.467,0.48-1.231,0.012-1.705
					c-0.469-0.475-1.231-0.48-1.706-0.012c-4.042,3.988-8.13,5.994-12.151,5.963c-4.971-0.041-8.19-3.266-8.223-3.299
					c-0.465-0.474-1.229-0.484-1.705-0.02c-0.477,0.463-0.488,1.224-0.025,1.701c0.156,0.162,3.902,3.961,9.889,4.029
					C1755.01,1485.332,1757.812,1484.545,1760.578,1482.953z"/>
			</g>
			<g>
				<path style="fill:#F37A50;" d="M1796.891,1449.039c-4.352,4.479-4.908,10.996-1.242,14.557
					c3.664,3.563,10.163,2.818,14.514-1.66c4.353-4.479,4.908-10.996,1.244-14.557
					C1807.741,1443.817,1801.242,1444.561,1796.891,1449.039z"/>
			</g>
		</g>
		<g>
			<path style="fill:#FFFFFF;" d="M1799.387,1460.17c-1.646-2.323-1.152-5.503,1.104-7.102c2.256-1.598,5.42-1.012,7.065,1.311
				c1.647,2.323,1.152,5.503-1.104,7.101C1804.196,1463.08,1801.033,1462.492,1799.387,1460.17z"/>
			<path style="fill:#FFFFFF;" d="M1796.902,1469.089l-0.221-0.121c-1.001-0.548-1.367-1.806-0.818-2.807l4.337-7.912
				c0.55-1.001,1.806-1.368,2.808-0.819l0.22,0.121c1.001,0.549,1.368,1.805,0.819,2.807l-4.338,7.912
				C1799.16,1469.271,1797.903,1469.639,1796.902,1469.089z"/>
		</g>
	</g>
	<g id="c_3_">
		<g id="c_7_">
			<g id="c_9_">
				<path id="c_11_" style="fill:#E62552;" d="M1679.178,1643.799c-0.195,0.06-0.391,0.098-0.586,0.119h-0.641
					c-1.175-0.125-2.221-0.928-2.594-2.127l-30.037-96.842c-0.061-0.195-0.098-0.391-0.119-0.586
					c-0.014-0.13-0.006-0.256-0.004-0.383c0.002-0.076-0.008-0.154,0-0.23c0.006-0.067,0.027-0.132,0.038-0.199
					c0.183-1.1,0.952-2.063,2.09-2.418c0.184-0.057,0.374-0.1,0.571-0.123c0.221-0.023,0.439-0.021,0.652,0h75.615l30.301,102.908
					h-75.34L1679.178,1643.799z"/>
				<path id="c_10_" style="fill:#8A284C;" d="M1723.476,1541.131c1.61-0.499,3.319,0.4,3.819,2.008l29.849,96.602l0.067,0.227
					c0.495,1.604-0.398,3.301-1.996,3.807l-0.003,0.006c-1.609,0.5-3.319-0.4-3.819-2.008l-29.926-96.822
					C1720.967,1543.34,1721.865,1541.631,1723.476,1541.131z"/>
			</g>
			<path style="fill:#95A6DB;" d="M1665.457,1551.221c0.996,3.107-0.295,6.301-2.887,7.133c-2.592,0.831-5.501-1.014-6.498-4.121
				c-0.998-3.107,0.295-6.301,2.887-7.132C1661.55,1546.269,1664.459,1548.113,1665.457,1551.221z"/>
			<path style="fill:#95A6DB;" d="M1675.037,1551.705c0.676,2.108-0.201,4.275-1.959,4.839c-1.758,0.565-3.732-0.687-4.409-2.796
				c-0.677-2.107,0.2-4.275,1.958-4.84C1672.386,1548.344,1674.359,1549.596,1675.037,1551.705z"/>
		</g>
		<path id="c_6_" style="fill:#F37A50;" d="M1666.348,1602.57c-0.281-0.188-0.589-0.307-0.904-0.395
			c0.032-0.047,0.067-0.091,0.1-0.139c1.881-2.838,1.756-6.233-0.281-7.58c-0.334-0.221-0.701-0.367-1.086-0.455
			c0.529-2.101,0.056-4.107-1.398-5.069c-0.577-0.382-1.247-0.552-1.951-0.546c0.664-2.063,0.137-4.23-1.491-5.309
			c-2.036-1.349-4.989-0.478-6.595,1.943c-1.605,2.422-1.256,5.479,0.779,6.828c0.516,0.342,1.09,0.539,1.687,0.607
			c-1.354,2.641-1.081,5.531,0.759,6.751c0.335,0.222,0.701,0.367,1.086,0.455c-0.528,2.101-0.055,4.107,1.399,5.069
			c0.536,0.355,1.151,0.529,1.802,0.547c-0.674,1.806-0.246,3.751,1.186,4.699c1.72,1.139,4.213,0.403,5.568-1.643
			C1668.363,1606.291,1668.068,1603.709,1666.348,1602.57z"/>
		<path style="fill:#F37A50;" d="M1759.31,1596.449l-6.894-3.994c0,0-1.908-9.775-12.977-10.012
			c1.268,4.102,3.094,10.012,3.094,10.012s-5.447,4.231-18.369-3.009c-12.633-2.839-7.236,6.371-11.423,7.032
			c-6.178,0.976,4.503,13.115,17.115,14.973c16.319,2.404,18.257-0.938,18.257-0.938l9.234,3.229L1759.31,1596.449z"/>
		<path id="c_4_" style="fill:#0E6A41;" d="M1829.803,1607.822c-23.039-1.61-69.049-13.916-69.049-13.916
			c-6.289,9.646-4.551,22.459-4.551,22.459c35.779,31.367,89.625,41.508,106.146,33.958c15.084-6.894,13.582-106.985-24.289-128.019
			L1829.803,1607.822z"/>
	</g>
	<g>
		<path style="fill:#FFFFFF;" d="M1759.826,1548.788l-0.455-0.227c-10.769-5.385-22.32-35.979-16.594-50.104l1.854,1.332
			c-5.577,13.757,6.191,41.54,15.192,46.745c17.843-9.586,22.829-33.162,26.843-52.137c2.484-11.748,4.631-21.892,9.344-26.17
			l1.344,1.482c-4.234,3.842-6.318,13.693-8.73,25.102c-4.135,19.551-9.281,43.885-28.346,53.744L1759.826,1548.788z"/>
	</g>
	<path style="fill:#FFFFFF;" d="M1782.684,1517.933l-0.994-0.241c-0.799-0.193-1.289-0.998-1.097-1.797l2.123-8.768
		c0.193-0.8,0.998-1.291,1.797-1.098l0.994,0.242c0.799,0.192,1.29,0.997,1.097,1.796l-2.123,8.769
		C1784.287,1517.635,1783.482,1518.125,1782.684,1517.933z"/>
	<path style="fill:#FFFFFF;" d="M1762.049,1547.155c0,1.165-0.943,2.109-2.109,2.109c-1.164,0-2.109-0.944-2.109-2.109
		c0-1.165,0.945-2.109,2.109-2.109C1761.105,1545.046,1762.049,1545.99,1762.049,1547.155z"/>
</g>
<g>
	<path style="fill:#FFFFFF;" d="M2323.418,1214.998c-14.193,0-25.74-11.547-25.74-25.74c0-14.193,11.547-25.74,25.74-25.74
		s25.74,11.547,25.74,25.74C2349.158,1203.451,2337.611,1214.998,2323.418,1214.998z M2323.418,1170.607
		c-10.284,0-18.65,8.367-18.65,18.65c0,10.285,8.366,18.65,18.65,18.65s18.65-8.365,18.65-18.65
		C2342.068,1178.975,2333.702,1170.607,2323.418,1170.607z"/>
</g>
<g>
	<path style="fill:#E3EAFF;" d="M291.896,909.572c-19.795,0-35.9-16.104-35.9-35.899c0-19.794,16.105-35.899,35.9-35.899
		c19.794,0,35.899,16.105,35.899,35.899C327.794,893.467,311.69,909.572,291.896,909.572z M291.896,847.661
		c-14.343,0-26.012,11.669-26.012,26.011c0,14.343,11.669,26.012,26.012,26.012c14.342,0,26.011-11.669,26.011-26.012
		C317.907,859.331,306.238,847.661,291.896,847.661z"/>
</g>
<g>
	<path style="fill:#FFFFFF;" d="M1403.859,1614.764c-14.193,0-25.74-11.546-25.74-25.74c0-14.192,11.547-25.739,25.74-25.739
		s25.74,11.547,25.74,25.739C1429.6,1603.218,1418.053,1614.764,1403.859,1614.764z M1403.859,1570.373
		c-10.283,0-18.65,8.367-18.65,18.65c0,10.285,8.367,18.652,18.65,18.652c10.284,0,18.65-8.367,18.65-18.652
		C1422.51,1578.74,1414.144,1570.373,1403.859,1570.373z"/>
</g>
<path style="fill:#FFFFFF;" d="M2263.294,1128.896c0,8.117-6.579,14.697-14.695,14.697s-14.696-6.58-14.696-14.697
	c0-8.115,6.58-14.693,14.696-14.693S2263.294,1120.781,2263.294,1128.896z"/>
<path style="fill:#FFFFFF;" d="M175.334,1270.303c16.475,0,29.83,13.355,29.83,29.828c0,16.474-13.355,29.83-29.83,29.83
	c-16.474,0-29.829-13.356-29.829-29.83C145.505,1283.658,158.86,1270.303,175.334,1270.303z"/>
<circle style="fill:#E3EAFF;" cx="2343.725" cy="867.719" r="32.711"/>
<path style="fill:#FFFFFF;" d="M201.178,1225.24c9.53,0,17.255,7.725,17.255,17.255s-7.725,17.255-17.255,17.255
	s-17.255-7.725-17.255-17.255S191.648,1225.24,201.178,1225.24z"/>
<path style="fill:#E3EAFF;" d="M341.049,780.775c13.291,0,24.065,10.775,24.065,24.065c0,13.292-10.774,24.066-24.065,24.066
	c-13.291,0-24.065-10.774-24.065-24.066C316.984,791.55,327.758,780.775,341.049,780.775z"/>
<path style="fill:#FFFFFF;" d="M1431.412,1509.1c9.529,0,17.255,7.726,17.255,17.255s-7.726,17.256-17.255,17.256
	c-9.53,0-17.256-7.727-17.256-17.256S1421.882,1509.1,1431.412,1509.1z"/>
<path style="fill:#FFFFFF;" d="M1408.222,779.103c9.53,0,17.255,7.725,17.255,17.255c0,9.53-7.725,17.256-17.255,17.256
	s-17.255-7.726-17.255-17.256C1390.967,786.828,1398.691,779.103,1408.222,779.103z"/>
<path style="fill:#FFFFFF;" d="M2342.975,1589.223c9.529,0,17.254,7.724,17.254,17.254c0,9.531-7.725,17.256-17.254,17.256
	c-9.53,0-17.256-7.725-17.256-17.256C2325.719,1596.947,2333.444,1589.223,2342.975,1589.223z"/>
</svg>
